<svg width="56" height="56" viewBox="0 0 56 56" fill="none" xmlns="http://www.w3.org/2000/svg">
<rect width="56" height="56" rx="28" fill="#00A642"/>
<path d="M27.9917 9.32336C23.1011 9.32336 19.1251 13.2994 19.1251 18.19C19.1251 22.9874 22.8771 26.87 27.7677 27.038C27.9171 27.0194 28.0664 27.0194 28.1784 27.038C28.2157 27.038 28.2344 27.038 28.2717 27.038C28.2904 27.038 28.2904 27.038 28.3091 27.038C33.0877 26.87 36.8397 22.9874 36.8584 18.19C36.8584 13.2994 32.8824 9.32336 27.9917 9.32336Z" fill="#3D4917"/>
<path d="M37.4744 32.0013C32.2664 28.5293 23.7731 28.5293 18.5278 32.0013C16.1571 33.5879 14.8505 35.7346 14.8505 38.0306C14.8505 40.3266 16.1571 42.4546 18.5091 44.0226C21.1225 45.7773 24.5571 46.6546 27.9917 46.6546C31.4264 46.6546 34.8611 45.7773 37.4744 44.0226C39.8264 42.4359 41.1331 40.3079 41.1331 37.9933C41.1144 35.6973 39.8264 33.5693 37.4744 32.0013Z" fill="#3D4917"/>
</svg>
