<svg width="397" height="150" viewBox="0 0 397 150" fill="none" xmlns="http://www.w3.org/2000/svg">
<path d="M212.314 79.3379C216.532 79.3875 218.897 73.8765 222.684 73.2943C224.127 73.0731 223.062 70.8389 222.202 70.4733C219.178 69.1825 218.013 66.4563 218.744 61.7442C219.075 59.5958 218.078 58.472 217.082 57.2353C213.848 53.2047 209.896 52.2208 205.805 50.596C206.839 53.5749 208.409 55.3713 209.943 56.8291C212.347 59.1129 212.474 62.7823 211.773 65.5942C210.86 69.2547 208.175 67.6208 206.18 67.6163C205.131 67.6118 204.223 64.7864 203.026 67.2056C202.358 68.5551 202.795 69.5932 203.434 70.6133C204.554 72.3961 205.686 74.4497 207.448 72.4683C209.624 70.0265 211.525 71.7642 213.089 73.6057C214.513 75.2892 212.831 77.1533 212.314 79.3379" fill="#363535"/>
<path d="M72.6201 19.0468C69.3595 17.5484 67.6391 15.9822 68.2598 10.7195C68.6323 7.53299 65.8684 5.48388 64.1627 3.50246C62.9507 2.09877 61.4815 1.21413 60.0064 1.29349e-06C60.2695 2.69455 60.1926 5.04151 61.718 6.95523C63.6779 9.41056 62.0284 13.089 62.321 16.1943C62.4363 17.3904 60.2488 16.6502 59.0929 16.6456C57.875 16.6456 56.4029 16.8893 56.2373 18.9836C55.9979 22.0212 58.0879 22.0257 59.0811 21.8723C61.6707 21.4706 64.2927 19.7193 63.9291 26.5843C63.873 27.6721 65.3983 28.5251 66.8232 27.0537C68.854 24.955 69.732 21.2269 72.6201 19.0468" fill="#363535"/>
<path d="M59.2556 126.941C59.8823 125.014 61.1209 126.874 62.1141 127.036C63.7755 127.312 65.3924 129.731 67.1395 127.451C69.6492 129.203 72.1797 130.801 75.0412 129.875C76.8356 131.076 79.1236 131.103 80.2292 134.975C77.2819 134.592 76.67 136.068 78.2013 139.548C78.9374 141.227 79.499 143.136 79.9454 145.049C80.2913 146.512 81.0569 148.399 79.9809 149.631C79.1236 150.61 78.1215 149.419 77.3085 148.633C74.5091 145.943 71.887 142.978 70.2937 138.347C68.9575 134.465 67.2105 132.678 64.4554 135.693C61.8481 138.546 60.2961 135.111 59.0605 132.75C58.4456 131.577 58.7176 128.593 59.2556 126.941" fill="#383737"/>
<path d="M67.1336 100.587C68.4461 101.129 68.5732 102.817 69.0817 104.004C72.4516 111.88 73.6341 120.939 75.0412 129.875C72.1797 130.8 69.6492 129.203 67.1395 127.451C65.4516 118.51 64.55 109.574 67.1336 100.587" fill="#2D2B2B"/>
<path d="M385.122 20.8928C385.666 21.6105 386.405 22.477 387.056 23.4745C387.765 24.5668 388.226 25.8982 387.765 27.4734C387.189 29.4458 386.169 28.3671 385.252 28.2994C384.262 28.2272 383.041 26.8686 382.314 28.7958C381.817 30.1092 382.494 31.3009 383.168 32.1268C384.049 33.2055 384.679 34.6543 386.272 33.5621C389.766 31.1609 391.182 32.5601 392.202 38.1658C392.788 41.3794 392.043 45.3829 394.39 47.6757C398.114 42.404 396.14 35.3855 397 29.2923C392.53 27.9338 391.25 16.5012 385.122 20.8928" fill="#373737"/>
<path d="M124.828 95.0988C125.863 99.8921 127.069 104.618 127.89 109.492C129.129 116.836 129.014 116.894 124.311 118.627C123.551 118.912 122.389 118.42 122.741 120.564C123.007 122.184 123.965 122.437 124.781 121.895C128.053 119.729 131.11 120.473 134.169 122.915C137.087 125.244 136.298 120.32 137.208 118.88C137.968 117.684 137.72 117.066 135.783 116.448C134.527 116.046 133.679 115.387 133.684 113.374C133.717 104.085 129.011 99.9056 124.828 95.0988" fill="#343233"/>
<path d="M161.167 60.9905C163.053 55.5608 162.356 50.9662 161.773 46.4843C161.59 45.0716 160.591 43.898 162.311 43.3925C162.444 43.3564 162.483 42.5575 162.566 42.1152C158.463 41.7496 159.092 33.6525 155.554 32.1675C154.135 31.5718 152.89 29.9965 151.114 28.4754C151.808 32.6369 153.609 35.2276 153.833 38.7707C152.512 39.8585 151.185 39.4297 149.881 39.2085C149.213 39.0957 148.261 38.184 148.196 39.9397C148.143 41.3615 148.852 43.5325 149.748 43.1218C156.145 40.2106 156.863 48.1407 158.791 53.8006C159.506 55.9039 160.189 58.0342 161.167 60.9905" fill="#323131"/>
<path d="M313.194 91.2262C313.523 88.7438 314.82 89.7594 315.855 89.8226C317.871 89.9445 320.011 90.3732 320.738 86.2931C323.05 87.0062 325.01 85.7108 326.861 83.7971C329.039 85.1918 331.203 81.3779 333.683 83.7114C332.873 85.1692 332.202 86.3742 331.466 87.6967C333.083 89.5427 334.617 91.2985 336.35 93.2799C332.199 93.8351 328.472 94.2142 324.561 93.0226C322.302 92.332 319.186 92.5352 317.058 95.4057C316.124 96.6605 315.509 97.7437 314.401 96.2001C313.458 94.8777 312.946 93.1219 313.194 91.2262" fill="#3B3B3C"/>
<path d="M315.089 63.7258C316.171 62.9314 316.824 64.5924 317.519 65.5673C321.291 70.8526 324.59 76.711 326.86 83.7972C325.01 85.7109 323.05 87.0063 320.738 86.2931C319.384 85.6432 318.432 84.3568 317.883 82.3213C316.591 77.5505 315.054 72.9017 314.882 67.5938C314.841 66.2579 313.856 64.6285 315.089 63.7258" fill="#2D2B2B"/>
<path d="M0.538854 76.6252C1.5862 73.195 3.20645 76.4311 4.5633 76.8193C5.79305 77.1713 7.16822 79.4778 8.16709 77.6498C9.11157 75.9211 8.6649 73.4522 7.40501 71.7055C6.80344 70.866 6.61276 69.2185 7.56079 69.196C10.1418 69.1418 12.4753 70.9066 14.7305 72.6624C16.7076 74.2105 14.16 76.1648 14.8346 77.9251C16.4049 79.234 19.0713 77.9702 19.5827 82.2129C18.0284 83.2148 15.7457 82.0956 15.7064 86.1126C13.3495 83.3819 9.92006 84.0904 9.15798 87.471C8.31608 84.3387 6.91429 83.6527 5.25266 85.8507C3.69124 87.9179 2.26521 87.5974 1.15194 85.4671C-0.20698 82.8583 -0.299499 79.3649 0.538854 76.6252" fill="#39393A"/>
<path d="M9.15778 87.4709C9.91986 84.0903 13.3493 83.3818 15.7062 86.1125C16.3875 89.3441 16.0236 92.2101 14.6369 94.9227C13.3008 97.536 12.1866 100.411 10.8608 103.033C10.2119 104.32 9.99583 107.127 8.43353 106.089C7.30548 105.344 7.49024 103.155 7.32618 101.269C6.89429 96.2316 10.0041 92.4764 9.15778 87.4709" fill="#2D2B2C"/>
</svg>
