<svg width="1440" height="438" viewBox="0 0 1440 438" fill="none" xmlns="http://www.w3.org/2000/svg">
<path d="M1412.06 326.971C1121.17 309.781 821.915 293.158 542.682 352.802C503.65 361.136 465.195 370.908 426.083 378.978C410.942 382.105 395.715 384.996 380.299 387.419C274.521 404.041 164.377 399.243 56.8462 408.888C-1.7274 414.138 -61.7735 425.002 -114 444H1440V328.646C1430.68 328.075 1421.37 327.519 1412.06 326.971" fill="#4E633C"/>
<path d="M1432.76 66.6699C1409.7 58.9044 1389.66 46.7965 1375.31 31.9614C1384.19 32.1613 1393.01 33.7208 1400.97 36.4958C1380.26 28.7624 1362.97 16.6225 1351.98 2.09931C1348.95 14.5472 1336.87 44.2293 1313.52 46.2406C1322.03 45.5089 1330.39 43.8694 1338.21 41.4022C1335.35 49.5755 1329.86 57.2929 1322.28 63.8228C1306.46 51.4509 1294.08 36.9237 1286.05 21.2929C1278.86 45.4288 1269.81 71.7042 1241.73 86.5632C1253.64 84.8838 1264.75 80.5772 1273.13 74.4152C1266.64 89.5142 1254.87 103.478 1239.13 114.742C1250.35 114.998 1261.65 112.011 1269.83 106.624C1264.46 117.221 1256.74 127.238 1247.05 136.207C1232.94 129.837 1220.2 121.991 1209.37 113.014C1218.14 116.117 1226.91 119.224 1235.67 122.335C1218.4 111.679 1204.01 98.7311 1193.49 84.3879C1203.07 88.0666 1212.65 91.7495 1222.22 95.4322C1212.13 87.8747 1204.17 78.9257 1198.94 69.245C1208.58 72.18 1218.23 75.119 1227.87 78.054C1191.14 59.7362 1171.96 29.1103 1154.47 5.48956e-06C1150.88 33.6368 1132.13 66.4018 1101.58 92.4692C1114.95 89.0863 1127.11 83.3722 1136.64 75.9787C1128.72 92.1013 1116.88 107.268 1101.78 120.64C1113.5 118.892 1124.58 115.066 1133.68 109.607C1130.74 124.067 1121.09 137.822 1106.55 148.287C1097.22 139.633 1087.89 130.98 1078.55 122.331C1087.2 125.834 1095.85 129.337 1104.49 132.84C1086.46 123.435 1079.79 108.108 1064.56 98.2033C1070.12 101.818 1077.07 104.377 1084.48 105.529C1067.79 92.0214 1055.08 76.1107 1047.37 59.0764C1043.31 79.3616 1029.15 98.5832 1007.9 112.651C1019.31 110.943 1030.19 107.496 1039.54 102.61C1033.45 115.306 1023.8 127.162 1011.31 137.298C1021.46 136.291 1031.02 132.616 1037.7 127.166C1034.51 141.341 1027.99 155.148 1018.5 167.864C1005.81 161.242 995.622 152.297 989.235 142.157C996.672 145.851 1005.67 147.971 1014.78 148.183C1001.17 139.178 989.886 128.457 981.616 116.693C989.001 119.704 997.699 121.112 1006.22 120.676C992.688 110.443 981.85 98.4672 974.413 85.5275C981.764 88.4625 989.115 91.3976 996.472 94.3326C976.154 76.9784 962.776 55.6775 958.233 33.4609C957.663 56.6852 945.381 79.6854 924.064 97.4755C933.989 95.8 942.927 91.4136 948.571 85.4516C942.361 100.179 930.165 113.642 913.785 123.847C925.828 122.587 937.162 118.225 945.141 111.779C941.705 126.294 930.97 139.905 915.269 149.674C926.124 149.046 936.511 145.132 943.24 139.134C940.375 155.768 930.49 171.779 915.149 184.638C905.002 176.993 896.789 168.092 890.991 158.479C898.667 162.906 907.855 166.033 917.569 167.52C904.791 155.344 894.141 142.069 885.934 128.089C895.162 134.243 905.744 139.402 917.187 143.32C898.758 126.614 884.667 107.556 875.821 87.3709C872.276 110.715 857.82 133.176 835.202 150.49C848.163 147.711 859.526 141.445 866.421 133.268C858.881 151.15 846.856 168.092 831.053 183.095C840.179 180.984 848.22 176.665 853.505 171.039C851.816 185.922 843.061 200.365 828.953 211.553C819.319 201.981 811.757 191.388 806.597 180.248C814.102 185.75 823.434 190.025 833.633 192.648C816.123 180.968 801.849 166.916 791.833 151.506C798.67 157.288 806.706 162.374 815.609 166.552C801.763 149.498 792.934 130.457 789.829 110.955C778.158 134.899 758.131 157.416 735.297 176.913C746.985 174.234 757.64 169.364 765.842 162.942C760.317 179.36 748.377 194.695 731.655 206.839C742.282 203.284 752.173 198.65 760.911 193.124C755.415 211.122 743.783 228.184 727.244 242.491C737.522 242.471 747.658 238.836 753.685 233.006C751.334 241.535 745.084 249.521 736.078 255.503C725.617 246.206 715.156 236.913 704.694 227.616C714.357 230.043 724.43 231.659 734.634 232.411C718.158 223.845 704.472 212.669 694.906 199.949C705.265 204.392 715.624 208.842 725.982 213.285C704.004 194.067 689.313 170.791 683.829 146.467C679.063 172.918 664.538 198.478 642.046 219.983C652.068 212.577 661.416 204.724 670.017 196.49C661.348 217.847 648.98 238.464 633.268 257.75C644.991 251.94 654.579 244.035 660.88 234.994C655.903 251.108 647.496 266.703 636.025 281.102C641.606 277.655 647.182 274.205 652.764 270.758C649.277 280.726 642.354 290.059 632.908 297.897C622.96 293.51 614.828 288.268 607.694 279.283C614.28 281.174 621.522 281.958 628.622 281.534C618.052 275.292 609.583 267.315 604.081 258.426C610.176 259.733 616.272 261.045 622.367 262.357C607.5 251.884 596.656 238.632 591.268 224.353C591.531 240.036 581.868 255.675 565.369 266.279C573.787 263.72 581.412 259.889 587.564 255.119C584.037 267.319 574.397 278.607 560.711 286.544C570.38 284.933 579.237 281.022 585.492 275.612C582.479 289.315 573.273 302.311 559.524 312.28C566.727 308.913 573.935 305.542 581.138 302.175C577.542 311.94 571.978 321.341 564.667 330.026C552.887 320.357 543.321 309.369 536.444 297.605C544.891 300.536 554.108 302.371 563.497 302.987C550.216 295.505 539.686 285.657 533.174 274.628C540 278.103 548.509 279.927 556.945 279.719C547.762 273.089 539.498 265.835 532.306 258.094C537.506 261.045 543.687 263.152 550.216 264.192C533.648 251.792 521.988 236.209 516.84 219.611C516.115 237.165 505.585 254.423 487.99 266.923C496.842 262.576 505.168 257.706 512.856 252.38C508.992 265.104 499.107 276.892 485.13 285.457C494.296 282.542 502.92 278.795 510.716 274.332C507.383 286.532 499.267 298.081 487.493 307.37C493.708 304.103 499.336 300.3 504.215 296.065C501.858 307.266 496.254 318.114 487.915 327.811L488.652 328.418C494.599 324.968 500.546 321.513 506.492 318.058C504.409 328.642 497.977 338.787 488.167 346.964C480.211 340.47 473.385 333.297 467.889 325.651C474.772 328.546 482.762 330.126 490.786 330.178C490.056 329.602 489.371 328.998 488.652 328.418C487.813 328.906 486.968 329.394 486.129 329.882C486.751 329.202 487.322 328.502 487.915 327.811C478.624 320.221 470.143 312.144 462.678 303.623C468.465 306.862 475.702 308.813 483.104 309.125C469.783 294.13 459.967 277.615 454.157 260.429C448.558 282.194 435.688 303.023 416.866 320.777C426.117 317.586 433.782 312.176 438.268 305.666C434.57 320.909 426.448 335.616 414.549 348.636C424.462 344.817 432.601 338.783 437.475 331.633C434.587 344.197 427.538 356.285 417.043 366.674C422.887 365.262 428.115 362.623 431.87 359.18C426.46 367.641 418.726 375.343 409.315 381.861C408.339 382.54 407.346 383.212 406.33 383.864C405.349 383.1 404.43 382.292 403.477 381.509C393.175 373.004 384.62 363.467 378.365 353.206C387.068 356.917 396.382 359.924 406.056 362.151C392.073 348.872 381.201 333.985 374.004 318.274C380.996 324.36 392.895 327.471 403.87 326.075C391.526 318.022 381.27 308.405 373.747 297.829C380.1 301.296 387.228 304.055 394.79 305.978C376.961 294.69 364.022 279.667 358.081 263.356C353.298 283.429 343.91 302.963 330.395 320.977C339.03 314.995 346.552 308.229 352.722 300.904C347.945 314.875 340.697 328.434 331.2 341.166C338.865 337.02 345.656 332.085 351.289 326.571C346.484 341.41 337.181 355.525 324.18 367.713C332.204 363.379 340.223 359.044 348.242 354.71C345.828 362.863 341.638 370.728 336.08 378.094C331.651 383.96 326.309 389.482 320.145 394.528C314.244 388.774 308.645 382.872 303.32 376.842C301.054 374.283 298.76 371.728 296.602 369.121C303.194 373.383 312.058 375.887 321.029 376.007C309.975 366.97 300.192 357.165 291.888 346.784C299.873 349.072 308 351.119 316.23 352.918C307.983 343.825 299.73 334.736 291.483 325.643C297.59 328.111 304.187 329.97 311.036 331.146C300.369 317.942 292.533 303.619 287.865 288.804C280.194 306.75 268.18 323.78 252.491 338.951C260.441 334.428 268.391 329.906 276.342 325.38C268.643 337.18 260.949 348.98 253.256 360.784C258.335 356.969 264.482 353.866 271.245 351.699C265.31 359.624 259.374 367.549 253.444 375.475C255.984 375.531 258.518 375.575 261.058 375.631C263.58 374.127 266.109 372.628 268.631 371.128C267.678 372.668 266.668 374.195 265.692 375.731C259.802 385.036 253.581 394.241 247.046 403.333C269.584 402.278 292.054 400.918 314.398 398.955C317.559 398.671 320.721 398.379 323.883 398.075C342.352 396.296 360.735 394.105 378.981 391.234C386.041 390.122 393.055 388.894 400.046 387.611C403.06 387.055 406.062 386.459 409.07 385.883C414.309 384.872 419.548 383.872 424.765 382.792C463.876 374.723 502.332 364.95 541.364 356.617C820.597 296.973 1119.85 313.595 1410.74 330.786C1420.05 331.334 1429.36 331.889 1438.68 332.461V68.7251C1436.72 68.0094 1434.73 67.3336 1432.76 66.6699" fill="#4C7672"/>
</svg>
