<svg width="651" height="504" viewBox="0 0 651 504" fill="none" xmlns="http://www.w3.org/2000/svg">
<path d="M11.8792 105.745C11.8792 105.745 68.4337 29.0995 75.8081 27.0507C83.1844 25.0019 87.696 29.9212 87.696 29.9212L106.135 10.6569L115.151 11.8857C115.151 11.8857 129.496 8.24297e-05 131.956 8.24297e-05C134.411 8.24297e-05 189.33 53.6904 189.33 53.6904C189.33 53.6904 202.854 45.9063 205.313 46.3153C207.77 46.7261 265.556 108.206 266.782 109.435C268.017 110.662 297.933 161.077 297.933 161.077C297.933 161.077 326.62 195.915 331.946 195.915C337.273 195.915 359.817 184.03 361.863 183.62C363.912 183.208 376.616 187.718 376.616 187.718C376.616 187.718 386.45 207.801 397.103 222.964C407.761 238.131 427.025 275.018 427.025 275.018L-54.5128 198.373L11.8792 105.745" fill="#754E22"/>
<path d="M176.376 147.982L90.5979 65.6534L131.761 130.385L63.8892 88.5917L52.2667 97.3911L93.8421 50.4109L176.376 147.982Z" fill="#69421D"/>
<path d="M115.153 11.8857L106.135 10.6568L87.6964 29.9212C87.6964 29.9212 83.1848 25.0019 75.8085 27.0488C68.4341 29.0995 11.8777 105.743 11.8777 105.743L-0.861267 123.517L13.1102 129.105L41.7973 109.431C41.7973 109.431 93.435 51.6397 93.8421 50.4108C94.2529 49.1819 80.7291 48.362 80.7291 48.362C80.7291 48.362 119.254 29.5066 119.254 28.2777C119.254 27.0488 118.023 16.8012 118.023 16.8012L131.956 4.04764e-06C129.497 4.04764e-06 115.153 11.8857 115.153 11.8857" fill="#B68041"/>
<path d="M-118.031 245.508C-118.031 245.508 -51.6422 115.172 -27.4648 104.105C-3.28558 93.0392 35.6462 96.7278 35.6462 96.7278C35.6462 96.7278 105.726 120.91 122.118 131.156C138.511 141.403 155.723 172.964 155.723 172.964L-118.031 245.508Z" fill="#754E22"/>
<path d="M105.607 130C105.607 130 141.548 93.5994 145.148 92.9251C148.742 92.2508 159.077 91.8031 159.077 91.8031C159.077 91.8031 225.578 143.71 226.256 144.607C226.928 145.504 258.382 195.386 258.382 195.386L102.237 169.323L105.607 130" fill="#6B491E"/>
<path d="M138.553 123.546L173.435 176.829L135.686 132.624L105.607 130L138.553 123.546" fill="#603917"/>
<path d="M-187 280.888C-187 280.888 -19.3757 154.528 76.9469 153.279C173.27 152.026 373.306 208.397 636 424.831C577.207 468.619 436.209 456.446 436.209 456.446L-187 285.892" fill="url(#paint0_linear_106_176)"/>
<path d="M189.33 53.6901C189.33 53.6901 184.098 48.5756 176.793 41.5061L190.015 53.2995C189.579 53.5464 189.33 53.6901 189.33 53.6901" fill="url(#paint1_linear_106_176)"/>
<path d="M262.467 141.698L191.143 61.2536L213.137 113.103L135.451 3.11549L167.579 33.2873L176.794 41.5063C184.098 48.5757 189.33 53.6902 189.33 53.6902C189.33 53.6902 189.579 53.5465 190.015 53.2996L190.83 54.0256C196.483 61.2535 262.467 141.698 262.467 141.698" fill="#69421D"/>
<path d="M159.339 92.7205L159.536 92.1623C159.265 91.9486 159.077 91.803 159.077 91.803C159.077 91.803 148.742 92.2507 145.148 92.925C141.548 93.5994 105.606 130 105.606 130L138.313 124.263L159.339 92.7205" fill="#B68041"/>
<path d="M581.8 506.533V506.4H533V506.267H484.067V506.133H435.133V506H386.067V505.867H337.133V505.733H288.2V505.6H239.267V505.467H190.2V505.333H141.267V505.2H92.3333V505.067H43.2667V504.933H-5.66668V504.8H-54.6V504.667H-103.667V504.533H-152.6V504.4H-187V258.933H-184.867V258.8H-181.667V258.667H-178.067V258.533H-173.8V258.4H-168.467V258.267H-161.267V258.133H-147.667V258H-131.133V258.133H-118.867V258.267H-114.867V258.4H-112.6V258.533H-110.333V258.667H-108.2V258.8H-106.2V258.933H-104.733V259.067H-103.267V259.2H-101.8V259.333H-100.333V259.467H-98.8667V259.6H-97.6667V259.733H-96.4667V259.867H-95.4V260H-94.3333V260.133H-93.1333V260.267H-92.0667V260.4H-90.8667V260.533H-89.9333V260.667H-89V260.8H-88.0667V260.933H-87.1333V261.067H-86.2V261.2H-85.2667V261.333H-84.3333V261.467H-83.4V261.6H-82.4667V261.733H-81.6667V261.867H-80.8667V262H-80.0667V262.133H-79.2667V262.267H-78.4667V262.4H-77.6667V262.533H-76.8667V262.667H-76.0667V262.8H-75.2667V262.933H-74.4667V263.067H-73.6667V263.2H-73V263.333H-72.3333V263.467H-71.6667V263.6H-70.8667V263.733H-70.2V263.867H-69.5333V264H-68.8667V264.133H-68.0667V264.267H-67.4V264.4H-66.7333V264.533H-66.0667V264.667H-65.2667V264.8H-64.7333V264.933H-64.0667V265.067H-63.4V265.2H-62.7333V265.333H-62.2V265.467H-61.5333V265.6H-60.8667V265.733H-60.2V265.867H-59.6667V266H-59V266.133H-58.3333V266.267H-57.8V266.4H-57.1333V266.533H-56.4667V266.667H-55.9333V266.8H-55.4V266.933H-54.7333V267.067H-54.2V267.2H-53.6667V267.333H-53V267.467H-52.4667V267.6H-51.9333V267.733H-51.2667V267.867H-50.7333V268H-50.2V268.133H-49.5333V268.267H-49V268.4H-48.4667V268.533H-47.9333V268.667H-47.4V268.8H-46.8667V268.933H-46.3333V269.067H-45.8V269.2H-45.2667V269.333H-44.7333V269.467H-44.0667V269.6H-43.5333V269.733H-43V269.867H-42.4667V270H-41.9333V270.133H-41.4V270.267H-40.8667V270.4H-40.3333V270.533H-39.9333V270.667H-39.4V270.8H-38.8667V270.933H-38.3333V271.067H-37.8V271.2H-37.4V271.333H-36.8667V271.467H-36.3333V271.6H-35.8V271.733H-35.4V271.867H-34.8667V272H-34.3333V272.133H-33.8V272.267H-33.4V272.4H-32.8667V272.533H-32.3333V272.667H-31.8V272.8H-31.4V272.933H-30.8667V273.067H-30.4667V273.2H-29.9333V273.333H-29.5333V273.467H-29V273.6H-28.6V273.733H-28.0667V273.867H-27.5333V274H-27.1333V274.133H-26.6V274.267H-26.2V274.4H-25.6667V274.533H-25.2667V274.667H-24.7333V274.8H-24.3333V274.933H-23.8V275.067H-23.4V275.2H-22.8667V275.333H-22.4667V275.467H-22.0667V275.6H-21.5333V275.733H-21.1333V275.867H-20.6V276H-20.2V276.133H-19.8V276.267H-19.2667V276.4H-18.8667V276.533H-18.4667V276.667H-17.9333V276.8H-17.5333V276.933H-17V277.067H-16.6V277.2H-16.2V277.333H-15.8V277.467H-15.2667V277.6H-14.8667V277.733H-14.4667V277.867H-14.0667V278H-13.5333V278.133H-13.1333V278.267H-12.7333V278.4H-12.3333V278.533H-11.8V278.667H-11.4V278.8H-11V278.933H-10.6V279.067H-10.2V279.2H-9.66668V279.333H-9.26668V279.467H-8.86668V279.6H-8.46668V279.733H-8.06668V279.867H-7.66668V280H-7.13334V280.133H-6.73334V280.267H-6.33334V280.4H-5.93334V280.533H-5.53334V280.667H-5.13334V280.8H-4.73334V280.933H-4.33334V281.067H-3.93334V281.2H-3.53334V281.333H-3.00001V281.467H-2.60001V281.6H-2.20001V281.733H-1.80001V281.867H-1.40001V282H-1.00001V282.133H-0.600011V282.267H-0.200011V282.4H0.199989V282.533H0.599989V282.667H0.999989V282.8H1.39999V282.933H1.79999V283.067H2.19999V283.2H2.59999V283.333H2.99999V283.467H3.39999V283.6H3.79999V283.733H4.19999V283.867H4.59999V284H4.99999V284.133H5.39999V284.267H5.79999V284.4H6.06666V284.533H6.46666V284.667H6.86666V284.8H7.26666V284.933H7.66666V285.067H8.06666V285.2H8.46666V285.333H8.86665V285.467H9.26665V285.6H9.53332V285.733H9.93332V285.867H10.3333V286H10.7333V286.133H11.1333V286.267H11.5333V286.4H11.9333V286.533H12.3333V286.667H12.7333V286.8H13V286.933H13.4V287.067H13.8V287.2H14.2V287.333H14.4667V287.467H14.8667V287.6H15.2667V287.733H15.6667V287.867H16.0667V288H16.3333V288.133H16.7333V288.267H17.1333V288.4H17.5333V288.533H17.9333V288.667H18.2V288.8H18.6V288.933H19V289.067H19.4V289.2H19.8V289.333H20.0667V289.467H20.4667V289.6H20.8667V289.733H21.1333V289.867H21.5333V290H21.9333V290.133H22.3333V290.267H22.6V290.4H23V290.533H23.4V290.667H23.6667V290.8H24.0667V290.933H24.4667V291.067H24.8667V291.2H25.1333V291.333H25.5333V291.467H25.9333V291.6H26.2V291.733H26.6V291.867H27V292H27.2667V292.133H27.6667V292.267H28.0667V292.4H28.3333V292.533H28.7333V292.667H29V292.8H29.4V292.933H29.8V293.067H30.0667V293.2H30.4667V293.333H30.8667V293.467H31.1333V293.6H31.5333V293.733H31.9333V293.867H32.2V294H32.6V294.133H32.8667V294.267H33.2667V294.4H33.5333V294.533H33.9333V294.667H34.3333V294.8H34.6V294.933H35V295.067H35.2667V295.2H35.6667V295.333H36.0667V295.467H36.3333V295.6H36.7333V295.733H37V295.867H37.4V296H37.6667V296.133H38.0667V296.267H38.3333V296.4H38.7333V296.533H39V296.667H39.4V296.8H39.8V296.933H40.0667V297.067H40.4667V297.2H40.7333V297.333H41.1333V297.467H41.4V297.6H41.8V297.733H42.0667V297.867H42.4667V298H42.7333V298.133H43.1333V298.267H43.4V298.4H43.8V298.533H44.0667V298.667H44.4667V298.8H44.7333V298.933H45V299.067H45.4V299.2H45.6667V299.333H46.0667V299.467H46.3333V299.6H46.7333V299.733H47V299.867H47.4V300H47.6667V300.133H48.0667V300.267H48.3333V300.4H48.6V300.533H49V300.667H49.2667V300.8H49.6667V300.933H49.9333V301.067H50.3333V301.2H50.6V301.333H50.8667V301.467H51.2667V301.6H51.5333V301.733H51.9333V301.867H52.2V302H52.4667V302.133H52.8667V302.267H53.1333V302.4H53.5333V302.533H53.8V302.667H54.0667V302.8H54.4667V302.933H54.7333V303.067H55V303.2H55.4V303.333H55.6667V303.467H56.0667V303.6H56.3333V303.733H56.6V303.867H57V304H57.2667V304.133H57.5333V304.267H57.9333V304.4H58.2V304.533H58.4667V304.667H58.8667V304.8H59.1333V304.933H59.4V305.067H59.8V305.2H60.0667V305.333H60.3333V305.467H60.6V305.6H61V305.733H61.2667V305.867H61.5333V306H61.9333V306.133H62.2V306.267H62.4667V306.4H62.8667V306.533H63.1333V306.667H63.4V306.8H63.6667V306.933H64.0667V307.067H64.3333V307.2H64.6V307.333H64.8667V307.467H65.2667V307.6H65.5333V307.733H65.8V307.867H66.0667V308H66.4667V308.133H66.7333V308.267H67V308.4H67.2667V308.533H67.5333V308.667H67.9333V308.8H68.2V308.933H68.4667V309.067H68.7333V309.2H69V309.333H69.4V309.467H69.6667V309.6H69.9333V309.733H70.2V309.867H70.6V310H71V310.133H71.4V310.267H71.8V310.4H72.3333V310.533H72.7333V310.667H73.1333V310.8H73.5333V310.933H73.9333V311.067H74.3333V311.2H74.8667V311.333H75.2667V311.467H75.6667V311.6H76.0667V311.733H76.4667V311.867H76.8667V312H77.2667V312.133H77.8V312.267H78.2V312.4H78.6V312.533H79V312.667H79.4V312.8H79.8V312.933H80.2V313.067H80.6V313.2H81V313.333H81.5333V313.467H81.9333V313.6H82.3333V313.733H82.7333V313.867H83.1333V314H83.5333V314.133H83.9333V314.267H84.3333V314.4H84.7333V314.533H85.1333V314.667H85.5333V314.8H85.9333V314.933H86.3333V315.067H86.7333V315.2H87.1333V315.333H87.5333V315.467H87.9333V315.6H88.3333V315.733H88.7333V315.867H89.1333V316H89.5333V316.133H89.9333V316.267H90.4667V316.4H90.8667V316.533H91.2667V316.667H91.6667V316.8H91.9333V316.933H92.3333V317.067H92.7333V317.2H93.1333V317.333H93.5333V317.467H93.9333V317.6H94.3333V317.733H94.7333V317.867H95.1333V318H95.5333V318.133H95.9333V318.267H96.3333V318.4H96.7333V318.533H97.1333V318.667H97.5333V318.8H97.9333V318.933H98.3333V319.067H98.7333V319.2H99.1333V319.333H99.5333V319.467H99.9333V319.6H100.333V319.733H100.733V319.867H101V320H101.4V320.133H101.8V320.267H102.2V320.4H102.6V320.533H103V320.667H103.4V320.8H103.8V320.933H104.2V321.067H104.6V321.2H105V321.333H105.267V321.467H105.667V321.6H106.067V321.733H106.467V321.867H106.867V322H107.267V322.133H107.667V322.267H108.067V322.4H108.333V322.533H108.733V322.667H109.133V322.8H109.533V322.933H109.933V323.067H110.333V323.2H110.733V323.333H111V323.467H111.4V323.6H111.8V323.733H112.2V323.867H112.6V324H113V324.133H113.267V324.267H113.667V324.4H114.067V324.533H114.467V324.667H114.867V324.8H115.133V324.933H115.533V325.067H115.933V325.2H116.333V325.333H116.733V325.467H117V325.6H117.4V325.733H117.8V325.867H118.2V326H118.6V326.133H118.867V326.267H119.267V326.4H119.667V326.533H120.067V326.667H120.333V326.8H120.733V326.933H121.133V327.067H121.533V327.2H121.8V327.333H122.2V327.467H122.6V327.6H123V327.733H123.267V327.867H123.667V328H124.067V328.133H124.467V328.267H124.733V328.4H125.133V328.533H125.533V328.667H125.933V328.8H126.2V328.933H126.6V329.067H127V329.2H127.267V329.333H127.667V329.467H128.067V329.6H128.467V329.733H128.733V329.867H129.133V330H129.533V330.133H129.8V330.267H130.2V330.4H130.6V330.533H130.867V330.667H131.267V330.8H131.667V330.933H131.933V331.067H132.333V331.2H132.733V331.333H133V331.467H133.4V331.6H133.8V331.733H134.067V331.867H134.467V332H134.867V332.133H135.133V332.267H135.533V332.4H135.933V332.533H136.2V332.667H136.6V332.8H136.867V332.933H137.267V333.067H137.667V333.2H137.933V333.333H138.333V333.467H138.733V333.6H139V333.733H139.4V333.867H139.667V334H140.067V334.133H140.333V334.267H140.733V334.4H141.133V334.533H141.4V334.667H141.8V334.8H142.067V334.933H142.467V335.067H142.867V335.2H143.133V335.333H143.533V335.467H143.8V335.6H144.2V335.733H144.467V335.867H144.867V336H145.267V336.133H145.533V336.267H145.933V336.4H146.2V336.533H146.6V336.667H146.867V336.8H147.267V336.933H147.533V337.067H147.933V337.2H148.2V337.333H148.6V337.467H148.867V337.6H149.267V337.733H149.533V337.867H149.933V338H150.2V338.133H150.6V338.267H150.867V338.4H151.267V338.533H151.533V338.667H151.933V338.8H152.2V338.933H152.6V339.067H152.867V339.2H153.267V339.333H153.533V339.467H153.933V339.6H154.2V339.733H154.6V339.867H154.867V340H155.133V340.133H155.533V340.267H155.8V340.4H156.2V340.533H156.467V340.667H156.867V340.8H157.133V340.933H157.4V341.067H157.8V341.2H158.067V341.333H158.467V341.467H158.733V341.6H159V341.733H159.4V341.867H159.667V342H160.067V342.133H160.333V342.267H160.733V342.4H161V342.533H161.267V342.667H161.667V342.8H161.933V342.933H162.2V343.067H162.6V343.2H162.867V343.333H163.133V343.467H163.533V343.6H163.8V343.733H164.067V343.867H164.467V344H164.733V344.133H165.133V344.267H165.4V344.4H165.667V344.533H166.067V344.667H166.333V344.8H166.6V344.933H167V345.067H167.267V345.2H167.533V345.333H167.8V345.467H168.2V345.6H168.467V345.733H168.733V345.867H169.133V346H169.4V346.133H169.667V346.267H169.933V346.4H170.333V346.533H170.6V346.667H170.867V346.8H171.133V346.933H171.533V347.067H171.8V347.2H172.067V347.333H172.467V347.467H172.733V347.6H173V347.733H173.267V347.867H173.533V348H173.933V348.133H174.2V348.267H174.467V348.4H174.733V348.533H175V348.667H175.4V348.8H175.667V348.933H175.933V349.067H176.2V349.2H176.467V349.333H176.867V349.467H177.133V349.6H177.4V349.733H177.667V349.867H177.933V350H178.333V350.133H178.6V350.267H178.867V350.4H179.133V350.533H179.4V350.667H179.667V350.8H179.933V350.933H180.2V351.067H180.6V351.2H180.867V351.333H181.133V351.467H181.4V351.6H181.667V351.733H181.933V351.867H182.2V352H182.467V352.133H182.867V352.267H183.133V352.4H183.4V352.533H183.667V352.667H183.933V352.8H184.2V352.933H184.467V353.067H184.733V353.2H185V353.333H185.267V353.467H185.533V353.6H185.8V353.733H186.067V353.867H186.333V354H186.6V354.133H186.867V354.267H187.133V354.4H187.4V354.533H187.667V354.667H187.933V354.8H188.2V354.933H188.467V355.067H188.867V355.2H189.133V355.333H189.4V355.467H189.533V355.6H189.8V355.733H190.067V355.867H190.333V356H190.6V356.133H190.867V356.267H191.133V356.4H191.4V356.533H191.667V356.667H191.933V356.8H192.2V356.933H192.467V357.067H192.733V357.2H193V357.333H193.267V357.467H193.4V357.6H193.667V357.733H193.933V357.867H194.2V358H194.467V358.133H194.733V358.267H195V358.4H195.267V358.533H195.4V358.667H195.667V358.8H195.933V358.933H196.2V359.067H196.467V359.2H196.733V359.333H196.867V359.467H197.133V359.6H197.4V359.733H197.667V359.867H197.933V360H198.2V360.133H198.333V360.267H198.6V360.4H198.867V360.533H199.133V360.667H199.4V360.8H199.533V360.933H199.8V361.067H200.067V361.2H200.2V361.333H200.467V361.467H200.733V361.6H201V361.733H201.133V361.867H201.4V362H201.667V362.133H201.933V362.267H202.067V362.4H202.333V362.533H202.6V362.667H202.733V362.8H203V362.933H203.267V363.067H203.533V363.2H203.667V363.333H203.933V363.467H204.067V363.6H204.333V363.733H204.6V363.867H204.733V364H205V364.133H205.133V364.267H205.4V364.4H205.667V364.533H205.8V364.667H206.067V364.8H206.333V364.933H206.467V365.067H206.733V365.2H206.867V365.333H207.133V365.467H207.4V365.6H207.533V365.733H207.8V365.867H207.933V366H208.2V366.133H208.333V366.267H208.6V366.4H208.733V366.533H209V366.667H209.133V366.8H209.4V366.933H209.533V367.067H209.8V367.2H209.933V367.333H210.2V367.467H210.333V367.6H210.6V367.733H210.733V367.867H210.867V368H211.133V368.133H211.267V368.267H211.533V368.4H211.667V368.533H211.933V368.667H212.067V368.8H212.2V368.933H212.467V369.067H212.6V369.2H212.867V369.333H213V369.467H213.267V369.6H213.4V369.733H213.667V369.867H213.8V370H214.067V370.133H214.2V370.267H214.467V370.4H214.6V370.533H214.867V370.667H215V370.8H215.267V370.933H215.4V371.067H215.667V371.2H215.8V371.333H216.067V371.467H216.2V371.6H216.467V371.733H216.733V371.867H216.867V372H217.133V372.133H217.267V372.267H217.533V372.4H217.667V372.533H217.933V372.667H218.067V372.8H218.333V372.933H218.467V373.067H218.733V373.2H219V373.333H219.133V373.467H219.4V373.6H219.533V373.733H219.8V373.867H220.067V374H220.2V374.133H220.467V374.267H220.6V374.4H220.867V374.533H221.133V374.667H221.267V374.8H221.533V374.933H221.8V375.067H221.933V375.2H222.2V375.333H222.333V375.467H222.6V375.6H222.867V375.733H223V375.867H223.267V376H223.533V376.133H223.667V376.267H223.933V376.4H224.2V376.533H224.333V376.667H224.6V376.8H224.867V376.933H225V377.067H225.267V377.2H225.533V377.333H225.667V377.467H225.933V377.6H226.2V377.733H226.333V377.867H226.6V378H226.867V378.133H227V378.267H227.267V378.4H227.533V378.533H227.8V378.667H227.933V378.8H228.2V378.933H228.467V379.067H228.6V379.2H228.867V379.333H229.133V379.467H229.4V379.6H229.533V379.733H229.8V379.867H230.067V380H230.333V380.133H230.467V380.267H230.733V380.4H231V380.533H231.267V380.667H231.4V380.8H231.667V380.933H231.933V381.067H232.2V381.2H232.333V381.333H232.6V381.467H232.867V381.6H233.133V381.733H233.4V381.867H233.533V382H233.8V382.133H234.067V382.267H234.333V382.4H234.6V382.533H234.733V382.667H235V382.8H235.267V382.933H235.533V383.067H235.667V383.2H235.933V383.333H236.2V383.467H236.467V383.6H236.733V383.733H236.867V383.867H237.133V384H237.4V384.133H237.667V384.267H237.933V384.4H238.2V384.533H238.467V384.667H238.6V384.8H238.867V384.933H239.133V385.067H239.4V385.2H239.667V385.333H239.933V385.467H240.2V385.6H240.333V385.733H240.6V385.867H240.867V386H241.133V386.133H241.4V386.267H241.667V386.4H241.8V386.533H242.067V386.667H242.333V386.8H242.6V386.933H242.867V387.067H243.133V387.2H243.4V387.333H243.667V387.467H243.933V387.6H244.2V387.733H244.333V387.867H244.6V388H244.867V388.133H245.133V388.267H245.4V388.4H245.667V388.533H245.933V388.667H246.2V388.8H246.467V388.933H246.733V389.067H246.867V389.2H247.133V389.333H247.4V389.467H247.667V389.6H247.933V389.733H248.2V389.867H248.467V390H248.733V390.133H249V390.267H249.267V390.4H249.533V390.533H249.8V390.667H250.067V390.8H250.333V390.933H250.6V391.067H250.867V391.2H251.133V391.333H251.267V391.467H251.533V391.6H251.8V391.733H252.067V391.867H252.333V392H252.6V392.133H252.867V392.267H253.133V392.4H253.4V392.533H253.667V392.667H253.933V392.8H254.2V392.933H254.467V393.067H254.733V393.2H255V393.333H255.267V393.467H255.533V393.6H255.8V393.733H256.067V393.867H256.333V394H256.6V394.133H256.867V394.267H257.133V394.4H257.4V394.533H257.667V394.667H257.933V394.8H258.2V394.933H258.467V395.067H258.733V395.2H259V395.333H259.267V395.467H259.533V395.6H259.8V395.733H260.067V395.867H260.333V396H260.6V396.133H261V396.267H261.267V396.4H261.533V396.533H261.8V396.667H262.067V396.8H262.333V396.933H262.6V397.067H262.867V397.2H263.133V397.333H263.4V397.467H263.667V397.6H263.933V397.733H264.2V397.867H264.467V398H264.733V398.133H265V398.267H265.267V398.4H265.533V398.533H265.933V398.667H266.2V398.8H266.467V398.933H266.733V399.067H267V399.2H267.267V399.333H267.533V399.467H267.8V399.6H268.067V399.733H268.333V399.867H268.6V400H268.867V400.133H269.267V400.267H269.533V400.4H269.8V400.533H270.067V400.667H270.333V400.8H270.6V400.933H270.867V401.067H271.133V401.2H271.533V401.333H271.8V401.467H272.067V401.6H272.333V401.733H272.6V401.867H272.867V402H273.133V402.133H273.4V402.267H273.8V402.4H274.067V402.533H274.333V402.667H274.6V402.8H274.867V402.933H275.133V403.067H275.4V403.2H275.8V403.333H276.067V403.467H276.333V403.6H276.6V403.733H276.867V403.867H277.133V404H277.533V404.133H277.8V404.267H278.067V404.4H278.333V404.533H278.6V404.667H278.867V404.8H279.267V404.933H279.533V405.067H279.8V405.2H280.067V405.333H280.333V405.467H280.6V405.6H281V405.733H281.267V405.867H281.533V406H281.8V406.133H282.067V406.267H282.467V406.4H282.733V406.533H283V406.667H283.267V406.8H283.533V406.933H283.933V407.067H284.2V407.2H284.467V407.333H284.733V407.467H285V407.6H285.4V407.733H285.667V407.867H285.933V408H286.2V408.133H286.467V408.267H286.867V408.4H287.133V408.533H287.4V408.667H287.667V408.8H288.067V408.933H288.333V409.067H288.6V409.2H288.867V409.333H289.267V409.467H289.533V409.6H289.8V409.733H290.067V409.867H290.467V410H290.733V410.133H291V410.267H291.267V410.4H291.667V410.533H291.933V410.667H292.2V410.8H292.467V410.933H292.867V411.067H293.133V411.2H293.4V411.333H293.8V411.467H294.067V411.6H294.333V411.733H294.733V411.867H295V412H295.267V412.133H295.533V412.267H295.933V412.4H296.2V412.533H296.467V412.667H296.867V412.8H297.133V412.933H297.4V413.067H297.667V413.2H298.067V413.333H298.333V413.467H298.6V413.6H299V413.733H299.267V413.867H299.533V414H299.933V414.133H300.2V414.267H300.467V414.4H300.867V414.533H301.133V414.667H301.4V414.8H301.8V414.933H302.067V415.067H302.333V415.2H302.733V415.333H303V415.467H303.267V415.6H303.667V415.733H303.933V415.867H304.2V416H304.6V416.133H304.867V416.267H305.267V416.4H305.533V416.533H305.8V416.667H306.2V416.8H306.467V416.933H306.733V417.067H307.133V417.2H307.4V417.333H307.667V417.467H308.067V417.6H308.333V417.733H308.733V417.867H309V418H309.267V418.133H309.667V418.267H309.933V418.4H310.333V418.533H310.6V418.667H310.867V418.8H311.267V418.933H311.533V419.067H311.933V419.2H312.2V419.333H312.6V419.467H312.867V419.6H313.133V419.733H313.533V419.867H313.8V420H314.2V420.133H314.467V420.267H314.733V420.4H315.133V420.533H315.4V420.667H315.8V420.8H316.067V420.933H316.467V421.067H316.733V421.2H317.133V421.333H317.4V421.467H317.8V421.6H318.067V421.733H318.467V421.867H318.733V422H319V422.133H319.4V422.267H319.667V422.4H320.067V422.533H320.333V422.667H320.733V422.8H321V422.933H321.4V423.067H321.667V423.2H322.067V423.333H322.333V423.467H322.733V423.6H323V423.733H323.4V423.867H323.667V424H324.067V424.133H324.333V424.267H324.733V424.4H325V424.533H325.4V424.667H325.8V424.8H326.067V424.933H326.467V425.067H326.733V425.2H327.133V425.333H327.4V425.467H327.8V425.6H328.2V425.733H328.467V425.867H328.867V426H329.133V426.133H329.533V426.267H329.8V426.4H330.2V426.533H330.467V426.667H330.867V426.8H331.267V426.933H331.533V427.067H331.933V427.2H332.333V427.333H332.6V427.467H333V427.6H333.267V427.733H333.667V427.867H334.067V428H334.333V428.133H334.733V428.267H335.133V428.4H335.4V428.533H335.8V428.667H336.067V428.8H336.467V428.933H336.867V429.067H337.267V429.2H337.533V429.333H337.933V429.467H338.333V429.6H338.6V429.733H339V429.867H339.4V430H339.667V430.133H340.067V430.267H340.467V430.4H340.733V430.533H341.133V430.667H341.533V430.8H341.933V430.933H342.2V431.067H342.6V431.2H343V431.333H343.4V431.467H343.667V431.6H344.067V431.733H344.467V431.867H344.867V432H345.133V432.133H345.533V432.267H345.933V432.4H346.333V432.533H346.733V432.667H347.133V432.8H347.533V432.933H347.8V433.067H348.2V433.2H348.6V433.333H349V433.467H349.4V433.6H349.8V433.733H350.2V433.867H350.6V434H350.867V434.133H351.267V434.267H351.667V434.4H352.067V434.533H352.467V434.667H352.867V434.8H353.267V434.933H353.667V435.067H354.067V435.2H354.467V435.333H354.867V435.467H355.267V435.6H355.667V435.733H356.067V435.867H356.467V436H356.867V436.133H357.4V436.267H357.8V436.4H358.2V436.533H358.6V436.667H359V436.8H359.4V436.933H359.933V437.067H360.333V437.2H360.733V437.333H361.133V437.467H361.667V437.6H362.067V437.733H362.467V437.867H363V438H363.4V438.133H363.933V438.267H364.333V438.4H364.867V438.533H365.267V438.667H365.8V438.8H366.333V438.933H366.733V439.067H367.267V439.2H367.8V439.333H368.333V439.467H368.867V439.6H369.4V439.733H369.933V439.867H370.467V440H371.133V440.133H371.667V440.267H372.333V440.4H372.867V440.533H373.4V440.667H374.067V440.8H374.6V440.933H375.267V441.067H375.933V441.2H376.467V441.333H377.133V441.467H377.8V441.6H378.333V441.733H379V441.867H379.667V442H380.333V442.133H380.867V442.267H381.533V442.4H382.2V442.533H382.867V442.667H383.533V442.8H384.067V442.933H384.733V443.067H385.4V443.2H386.067V443.333H386.733V443.467H387.4V443.6H388.067V443.733H388.733V443.867H389.4V444H390.067V444.133H390.733V444.267H391.267V444.4H391.933V444.533H392.6V444.667H393.267V444.8H393.933V444.933H394.6V445.067H395.267V445.2H395.933V445.333H396.6V445.467H397.4V445.6H398.067V445.733H398.733V445.867H399.4V446H400.067V446.133H400.733V446.267H401.4V446.4H402.067V446.533H402.733V446.667H403.4V446.8H404.067V446.933H404.733V447.067H405.4V447.2H406.2V447.333H406.867V447.467H407.533V447.6H408.2V447.733H408.867V447.867H409.533V448H410.2V448.133H411V448.267H411.667V448.4H412.333V448.533H413V448.667H413.667V448.8H414.333V448.933H415V449.067H415.8V449.2H416.467V449.333H417.133V449.467H417.8V449.6H418.467V449.733H419.267V449.867H419.933V450H420.6V450.133H421.267V450.267H421.933V450.4H422.733V450.533H423.4V450.667H424.067V450.8H424.733V450.933H425.4V451.067H426.2V451.2H426.867V451.333H427.533V451.467H428.2V451.6H429V451.733H429.667V451.867H430.333V452H431V452.133H431.8V452.267H432.467V452.4H433.133V452.533H433.8V452.667H434.6V452.8H435.267V452.933H435.933V453.067H436.6V453.2H437.4V453.333H438.067V453.467H438.733V453.6H439.4V453.733H440.2V453.867H440.867V454H441.533V454.133H442.333V454.267H443V454.4H443.667V454.533H444.333V454.667H445.133V454.8H445.8V454.933H446.467V455.067H447.267V455.2H447.933V455.333H448.6V455.467H449.4V455.6H450.067V455.733H450.733V455.867H451.4V456H452.2V456.133H452.867V456.267H453.533V456.4H454.333V456.533H455V456.667H455.667V456.8H456.467V456.933H457.133V457.067H457.8V457.2H458.6V457.333H459.267V457.467H459.933V457.6H460.733V457.733H461.4V457.867H462.067V458H462.867V458.133H463.533V458.267H464.2V458.4H465V458.533H465.667V458.667H466.333V458.8H467.133V458.933H467.8V459.067H468.467V459.2H469.267V459.333H469.933V459.467H470.6V459.6H471.4V459.733H472.067V459.867H472.867V460H473.533V460.133H474.2V460.267H475V460.4H475.667V460.533H476.333V460.667H477.133V460.8H477.8V460.933H478.467V461.067H479.267V461.2H479.933V461.333H480.733V461.467H481.4V461.6H482.067V461.733H482.867V461.867H483.533V462H484.2V462.133H485V462.267H485.667V462.4H486.467V462.533H487.133V462.667H487.8V462.8H488.6V462.933H489.267V463.067H489.933V463.2H490.733V463.333H491.4V463.467H492.2V463.6H492.867V463.733H493.533V463.867H494.333V464H495V464.133H495.8V464.267H496.467V464.4H497.133V464.533H497.933V464.667H498.6V464.8H499.4V464.933H500.067V465.067H500.733V465.2H501.533V465.333H502.2V465.467H503V465.6H503.667V465.733H504.467V465.867H505.133V466H505.8V466.133H506.6V466.267H507.267V466.4H508.067V466.533H508.733V466.667H509.4V466.8H510.2V466.933H510.867V467.067H511.667V467.2H512.333V467.333H513V467.467H513.8V467.6H514.467V467.733H515.267V467.867H515.933V468H516.733V468.133H517.4V468.267H518.067V468.4H518.867V468.533H519.533V468.667H520.333V468.8H521V468.933H521.8V469.067H522.467V469.2H523.133V469.333H523.933V469.467H524.6V469.6H525.4V469.733H526.067V469.867H526.867V470H527.533V470.133H528.333V470.267H529V470.4H529.667V470.533H530.467V470.667H531.133V470.8H531.933V470.933H532.6V471.067H533.4V471.2H534.067V471.333H534.867V471.467H535.533V471.6H536.2V471.733H537V471.867H537.667V472H538.467V472.133H539.133V472.267H539.933V472.4H540.6V472.533H541.4V472.667H542.067V472.8H542.867V472.933H543.533V473.067H544.2V473.2H545V473.333H545.667V473.467H546.467V473.6H547.133V473.733H547.933V473.867H548.6V474H549.4V474.133H550.067V474.267H550.867V474.4H551.533V474.533H552.333V474.667H553V474.8H553.667V474.933H554.467V475.067H555.133V475.2H555.933V475.333H556.6V475.467H557.4V475.6H558.067V475.733H558.867V475.867H559.533V476H560.333V476.133H561V476.267H561.8V476.4H562.467V476.533H563.267V476.667H563.933V476.8H564.733V476.933H565.4V477.067H566.2V477.2H566.867V477.333H567.667V477.467H568.333V477.6H569V477.733H569.8V477.867H570.467V478H571.267V478.133H571.933V478.267H572.733V478.4H573.4V478.533H574.2V478.667H574.867V478.8H575.667V478.933H576.333V479.067H577.133V479.2H577.8V479.333H578.6V479.467H579.267V479.6H580.067V479.733H580.733V479.867H581.533V480H582.2V480.133H583V480.267H583.667V480.4H584.467V480.533H585.133V480.667H585.933V480.8H586.6V480.933H587.4V481.067H588.067V481.2H588.867V481.333H589.533V481.467H590.333V481.6H591V481.733H591.8V481.867H592.467V482H593.267V482.133H593.933V482.267H594.733V482.4H595.4V482.533H596.2V482.667H596.867V482.8H597.667V482.933H598.333V483.067H599.133V483.2H599.8V483.333H600.6V483.467H601.267V483.6H602.067V483.733H602.733V483.867H603.533V484H604.2V484.133H605V484.267H605.667V484.4H606.467V484.533H607.133V484.667H607.933V484.8H608.6V484.933H609.4V485.067H610.067V485.2H610.867V485.333H611.667V485.467H612.333V485.6H613.133V485.733H613.8V485.867H614.6V486H615.267V486.133H616.067V486.267H616.733V486.4H617.533V486.533H618.2V486.667H619V486.8H619.667V486.933H620.467V487.067H621.133V487.2H621.933V487.333H622.6V487.467H623.4V487.6H624.067V487.733H624.867V487.867H625.533V488H626.333V488.133H627.133V488.267H627.8V488.4H628.6V488.533H629.267V488.667H630.067V488.8H630.733V488.933H631.533V489.067H632.2V489.2H633V489.333H633.667V489.467H634.467V489.6H635.133V489.733H635.933V489.867H636.733V490H637.4V490.133H638.2V490.267H638.867V490.4H639.667V490.533H640.333V490.667H641.133V490.8H641.8V490.933H642.6V491.067H643.267V491.2H644.067V491.333H644.867V491.467H645.533V491.6H646.333V491.733H647V491.867H647.8V492H648.467V492.133H649.267V492.267H649.933V492.4H650.333V492.533H650.067V492.667H649.667V492.8H649.4V492.933H649V493.067H648.6V493.2H648.333V493.333H647.933V493.467H647.667V493.6H647.267V493.733H646.867V493.867H646.6V494H646.2V494.133H645.8V494.267H645.533V494.4H645.133V494.533H644.867V494.667H644.467V494.8H644.067V494.933H643.8V495.067H643.4V495.2H643V495.333H642.733V495.467H642.333V495.6H641.933V495.733H641.667V495.867H641.267V496H641V496.133H640.6V496.267H640.2V496.4H639.933V496.533H639.533V496.667H639.133V496.8H638.867V496.933H638.467V497.067H638.067V497.2H637.8V497.333H637.4V497.467H637.133V497.6H636.733V497.733H636.333V497.867H636.067V498H635.667V498.133H635.267V498.267H635V498.4H634.6V498.533H634.333V498.667H633.933V498.8H633.533V498.933H633.267V499.067H632.867V499.2H632.467V499.333H632.2V499.467H631.8V499.6H631.4V499.733H631.133V499.867H630.733V500H630.467V500.133H630.067V500.267H629.667V500.4H629.4V500.533H629V500.667H628.6V500.8H628.333V500.933H627.933V501.067H627.667V501.2H627.267V501.333H626.867V501.467H626.6V501.6H626.2V501.733H625.8V501.867H625.533V502H625.133V502.133H624.733V502.267H624.467V502.4H624.067V502.533H623.8V502.667H623.4V502.8H623V502.933H622.733V503.067H622.333V503.2H621.933V503.333H621.667V503.467H621.267V503.6H620.867V503.733H620.6V503.867H620.2V504H619.933V504.133H619.533V504.267H619.133V504.4H618.867V504.533H618.467V504.667H618.067V504.8H617.8V504.933H617.4V505.067H617.133V505.2H616.733V505.333H616.333V505.467H616.067V505.6H615.667V505.733H615.267V505.867H615V506H614.6V506.133H614.2V506.267H613.933V506.4H613.533V506.533" fill="url(#paint2_linear_106_176)"/>
<defs>
<linearGradient id="paint0_linear_106_176" x1="199.201" y1="395.227" x2="341.412" y2="157.135" gradientUnits="userSpaceOnUse">
<stop stop-color="#43794B"/>
<stop offset="0.959391" stop-color="#9BBA54"/>
<stop offset="1" stop-color="#9BBA54"/>
</linearGradient>
<linearGradient id="paint1_linear_106_176" x1="232.543" y1="-643.923" x2="232.543" y2="480.654" gradientUnits="userSpaceOnUse">
<stop stop-color="#496754"/>
<stop offset="0.959391" stop-color="#807C50"/>
<stop offset="1" stop-color="#807C50"/>
</linearGradient>
<linearGradient id="paint2_linear_106_176" x1="-216.219" y1="382.299" x2="650.217" y2="382.299" gradientUnits="userSpaceOnUse">
<stop stop-color="#43794B"/>
<stop offset="0.035533" stop-color="#467C5F"/>
<stop offset="0.959391" stop-color="#9BBA54"/>
<stop offset="1" stop-color="#9BBA54"/>
</linearGradient>
</defs>
</svg>
