<svg width="740" height="837" viewBox="0 0 740 837" fill="none" xmlns="http://www.w3.org/2000/svg">
<path d="M551.241 468.743C546.595 471.423 544.237 476.769 547.372 480.518C539.768 482.201 533.921 487.063 530.477 492.516C527.03 497.968 525.647 504.026 524.302 509.991C523.454 509.625 522.561 509.334 521.672 509.034C519.788 508.398 517.833 507.902 515.824 507.556C512.98 507.066 510.056 506.879 507.14 506.974C505.173 507.034 503.221 507.219 501.304 507.547C498.357 508.052 495.494 508.836 492.856 509.965C494.597 505.069 496.349 500.121 496.504 495.052C496.654 489.982 495.045 484.703 490.743 480.844C489.563 479.786 488.184 478.832 487.34 477.605C486.38 476.21 486.191 474.593 485.864 473.04C484.112 464.729 477.65 457.063 468.479 452.412C472.108 447.665 474.248 442.259 474.67 436.772C474.549 438.368 477.71 437.942 481.067 436.991C483.622 436.267 486.274 435.244 487.691 434.57C488.12 434.365 488.444 434.19 488.606 434.071C492.868 430.849 495.803 426.919 496.198 422.256C496.07 423.777 501.835 422.241 506.533 420.636C508.082 420.106 509.502 419.573 510.568 419.138C511.51 418.751 512.177 418.44 512.385 418.282C516.947 414.743 520.61 409.44 519.159 404.405C519.781 406.564 521.325 408.495 523.398 410.025C525.315 411.446 527.685 412.521 530.244 413.071C531.999 413.446 533.834 413.584 535.661 413.426C534.497 418.227 533.337 423.186 534.746 427.95C536.155 432.711 540.835 437.264 547.168 437.893C544.135 449.325 553.494 461.922 567.887 465.78C562.077 465.527 555.887 466.06 551.241 468.743ZM813 386.353C810.724 386.927 808.656 387.921 807.179 389.374C799.689 381.953 783.714 380.789 774.524 386.996C779.422 378.252 774.98 367.054 764.558 361.863C756.533 357.869 745.712 357.832 737.28 361.186C738.376 357.958 738.949 354.624 738.814 351.29C738.64 347.108 737.02 342.451 732.258 340.391C730.257 339.526 727.913 339.229 725.615 339.189C722.488 339.134 719.395 339.612 716.467 340.448C710.232 342.229 704.836 345.8 702.04 350.434C700.115 349.295 697.719 349.212 695.334 349.682C693.235 350.097 691.148 350.935 689.422 351.912C680.813 356.785 675.459 364.538 674.095 372.641L674.208 372.956C675.504 375.872 677.92 378.408 680.41 380.837C678.406 381.924 676.669 383.276 675.143 384.76C673.266 386.595 671.808 388.656 670.87 390.864C669.842 393.279 669.378 395.82 669.77 398.362C658.783 394.42 645.378 399.57 638.162 407.031C638.935 402.025 636.618 396.789 632.029 393.169C627.44 389.549 620.665 387.621 614.098 388.059C618.823 385.411 623.133 382.281 626.758 378.76C627.801 377.748 628.77 376.693 629.696 375.616C631.942 373.002 633.833 370.218 635.242 367.275C635.736 366.241 636.169 365.186 636.542 364.12C637.869 360.31 638.351 356.336 638 352.419C637.092 351.889 636.177 351.373 635.258 350.857C635.83 350.615 636.437 350.425 636.995 350.166L637.646 349.84C640.661 348.388 643.486 346.61 645.152 344.212C646.945 341.644 647.137 338.267 644.824 335.955C649.383 338.751 655.886 339.16 661.432 337.693C661.907 337.569 662.381 337.454 662.837 337.304C664.043 336.901 665.154 336.376 666.243 335.826C670.407 333.716 673.741 330.65 676.107 327.255C678.24 324.2 679.724 320.707 678.982 317.289C678.244 313.872 674.781 310.641 670.275 310.278C677.727 303.151 679.129 292.635 673.703 284.505C670.58 279.828 663.384 275.681 657.227 278.001C658.761 271.312 650.935 264.874 642.175 263.747C637.56 263.154 632.914 263.736 628.528 265.021L628.604 264.897C632.285 257.05 633.302 247.324 629.949 239.179C633.204 238.07 636.237 236.589 638.863 234.747L639.01 234.635C640.838 233.338 642.616 231.819 644.285 230.217C646.47 228.122 648.463 225.882 650.027 223.718C650.826 222.609 656.101 209.951 652.713 209.839C656.27 209.957 659.733 209.191 662.826 207.856C664.167 207.274 665.426 206.58 666.601 205.802C667.984 204.885 669.227 203.853 670.305 202.73C672.517 206.266 675.828 209.404 679.947 211.738C680.964 212.315 682.072 212.856 683.326 212.995L683.53 212.986C684.11 218.465 687.825 223.793 693.932 226.738C694.822 227.165 695.775 227.488 696.732 227.805C702.21 229.626 708.6 229.675 714.24 228.116C717.948 227.09 721.331 225.407 723.856 223.073C724.406 228.776 725.28 234.776 729.658 239.413C730.366 240.162 731.229 240.828 732.145 241.45C728.806 243.894 726.478 246.868 727.789 250.081C728.84 252.661 732.16 254.436 735.63 254.94C739.1 255.448 742.694 254.868 746.032 253.978C752.724 252.191 758.828 249.128 763.631 245.139C763.311 247.231 764.724 249.237 766.827 250.655C767.493 251.102 768.221 251.494 768.993 251.808C770.892 252.577 772.983 252.966 775.119 253.223C776.585 253.396 778.066 253.517 779.531 253.615C782.609 253.819 785.789 253.986 788.902 253.906C793.11 253.796 797.202 253.22 800.747 251.54C802.239 250.834 803.652 249.932 805.374 249.678C806.791 249.471 808.238 249.73 809.651 249.946C810.754 250.116 811.873 250.246 813 250.358V154.159C806.828 158.271 803.276 164.816 804.843 171.006C801.708 167.078 794.263 166.888 788.491 168.196L787.914 168.358C789.504 165.865 790.439 163.234 790.028 160.458C789.523 157.029 787.014 153.853 787.006 150.403C787.003 148.51 787.76 146.671 788.171 144.804C789.889 137.049 784.682 128.349 775.18 125.343C765.677 122.337 752.984 126.53 750.64 134.19C741.564 134.717 732.91 138.556 727.8 144.32C722.691 150.084 721.233 157.654 723.957 164.3C720.702 162.559 716.848 161.527 712.895 161.222C710.299 161.023 707.669 161.147 705.13 161.617L704.482 161.723C697.919 163.101 692.256 166.801 689.456 171.542C692.904 164.009 695.703 156.075 694.724 148.127C694.26 144.392 692.787 140.657 690.421 137.36C693.062 130.977 694.29 124.227 692.881 117.648C691.186 109.737 685.316 102.126 676.13 98.2647C675.459 97.9823 674.736 97.6941 674.344 97.1898C673.7 96.3655 674.174 95.3195 674.608 94.4175C681.329 80.426 673.315 63.1866 656.557 55.5785C660.166 52.5093 663.075 48.9847 665.23 45.2037C666.055 43.7599 666.759 42.2787 667.355 40.7715C669.438 35.5063 670.124 29.9184 669.19 24.463C672.818 27.7109 678.692 28.9731 684.298 28.4803C685.997 28.3334 687.67 28.0308 689.249 27.561L689.343 27.538C693.073 26.4141 696.283 24.5495 699.026 22.3016C699.964 25.8319 702.044 29.1547 705.537 31.5264C704.339 37.4429 706.66 43.7169 711.701 48.2961L711.923 48.5209C713.336 49.7658 714.96 50.861 716.716 51.8149C721.44 54.3798 727.205 55.8322 733 55.786C722.846 64.7832 724.929 80.2358 737.269 87.4607C738.938 90.1725 741.198 92.6998 743.896 94.8871C745.083 95.8469 746.356 96.7345 747.713 97.5386C750.765 99.3455 754.201 100.734 757.961 101.455C762.034 102.236 766.408 102.08 770.444 101.17C769.358 107.297 771.883 113.516 779.976 116.778C787.123 119.657 796.889 117.864 801.55 112.818C805.092 114.196 809.127 114.34 813 113.642V9.84039C812.002 9.90088 811.007 10.0277 810.05 10.2957C811.173 9.2381 812.137 8.08539 813 6.8894V-15.6958C812.668 -16.1079 812.412 -16.5488 812.035 -16.9407C807.514 -21.667 799.738 -24.3183 792.172 -24.3126C789.893 -28.2924 785.066 -31.4423 779.452 -32.2377C783.924 -33.2896 788.551 -33.9611 792.926 -35.2205C797.304 -36.4798 801.535 -38.4193 804.104 -41.4077C806.681 -44.3934 807.232 -48.5779 804.538 -51.503C801.84 -54.4252 795.586 -55.2523 792.353 -52.6643C792.997 -56.7825 789.188 -61.0363 783.94 -62.0679C788.51 -64.0305 792.176 -67.2034 794.158 -70.9152C795.97 -74.3071 795.94 -78.8807 791.953 -80.9124C788.676 -82.5781 784.038 -81.702 781.091 -79.7049C778.145 -77.7078 776.494 -74.8519 774.931 -72.0882C774.347 -76.9125 768.725 -81.0882 762.399 -81.3908C766.947 -86.7223 770.229 -92.6819 772.041 -98.8952C773.175 -102.794 773.721 -106.927 772.165 -110.737C770.613 -114.552 766.57 -117.97 761.409 -118.581C753.3 -119.538 746.605 -113.619 743.546 -107.797C740.95 -102.858 739.699 -97.1373 742.547 -92.2814C738.331 -94.463 732.054 -93.8549 728.678 -90.9442C728.837 -94.3823 728.863 -97.8895 727.529 -101.178C726.199 -104.463 723.294 -107.541 719.101 -108.789C714.907 -110.036 709.444 -108.947 707.376 -105.895C715.898 -121.212 718.875 -149.406 689.728 -151.847C678.564 -152.783 667.249 -149.345 658.73 -143.752C646.35 -135.622 639.146 -123.466 636.373 -111.365C620.507 -111.293 605.172 -103.379 599.148 -92.1517C594.189 -82.9095 595.874 -71.9152 602.855 -63.5203C597.972 -47.2781 602.215 -29.3472 615.296 -15.9493C600.666 -6.71875 593.963 8.96442 597.494 23.123C586.153 22.6331 574.571 24.8694 564.281 28.708C556.226 31.7138 548.69 35.7282 543.027 41.0424C533.371 50.103 530.195 63.0657 541.517 72.2704C549.798 78.9995 565.513 79.8381 573.915 73.1954C568.558 82.8295 569.552 94.3915 576.507 103.406C579.744 107.596 584.261 111.15 589.502 113.905C584.668 116.069 580.426 118.982 577.291 122.55C575.931 124.098 574.571 125.864 572.261 126.458C571.127 126.749 569.899 126.712 568.705 126.732C559.975 126.873 551.448 130.403 546.524 135.919C544.109 138.628 542.605 141.778 542.04 145.026L542.003 145.04C535.006 147.942 531.393 153.404 531.201 159.395C531.012 165.28 534.211 171.038 539.037 175.623C541.728 178.179 544.923 180.372 548.363 182.337C548.988 186.706 550.506 190.986 553.234 194.842C557.379 200.709 564.477 205.516 572.947 207.096C574.91 207.462 577.005 207.614 579.028 207.493C579.017 211.153 579.454 214.813 580.388 218.401C580.546 219.015 580.754 219.637 580.987 220.257C577.212 221.358 573.636 222.773 570.46 224.738C566.723 227.055 563.69 229.989 561.226 233.148C560.853 233.62 560.566 234.127 560.22 234.609C554.206 231.073 548.325 227.519 540.639 225.638C532.105 223.551 523.085 223.833 514.705 225.88C512.795 226.346 510.919 226.888 509.088 227.537C507.811 227.986 506.548 228.467 505.324 229.004C504.864 229.202 504.457 229.439 504.009 229.646C502.837 230.182 501.703 230.738 500.595 231.318C477.838 243.159 468.276 263.234 468.163 283.577C465.981 283.618 463.773 283.854 461.72 284.217C436.506 288.673 415.027 302.993 404.138 320.947C393.253 338.904 392.639 360.071 400.705 378.875C402.555 383.192 404.937 387.449 408.064 391.299C406.96 395.685 407.156 400.261 408.855 404.532C412.016 412.483 420.139 419.186 430.263 422.195C420.034 426.973 411.379 435.639 413.535 444.656C415.109 451.23 422.181 456.417 430.192 459.086C434.464 460.512 439.083 461.319 443.74 461.515C441.563 463.308 439.799 465.44 438.616 467.7C435.821 473.034 435.572 478.919 435.399 484.665C434.585 481.879 430.576 480.475 427.008 479.637C422.125 478.492 416.922 477.628 411.945 478.504C409.733 478.893 407.608 479.729 405.871 480.861C390.939 479.755 374.972 485.778 368.303 496.204C358.209 498.101 348.692 502.838 343.937 509.911C339.182 516.983 340.094 526.432 347.452 532.055C341.077 542.283 343.707 555.404 353.797 563.703C363.891 572.003 380.804 574.96 394.609 570.839C387.718 577.211 382.119 583.868 383.246 592.528C384.011 598.392 387.767 603.998 393.55 607.894C389.089 609.534 385.955 613.119 385.68 616.9C385.408 620.684 388.004 624.511 392.202 626.517C397.288 628.946 403.833 628.62 409.657 627.534C412.819 626.94 415.848 626.378 418.598 625.442C420.765 624.701 422.762 623.73 424.502 622.318C425.06 621.868 425.591 621.375 426.092 620.828C428.617 622.831 433.036 622.96 436.163 621.537C439.291 620.113 441.19 617.444 441.841 614.704C442.124 613.493 442.196 612.237 441.819 611.041C441.046 608.583 438.432 606.632 435.406 605.62C432.377 604.612 428.978 604.447 425.682 604.617C426.405 602.816 426.567 600.908 426.262 599.041C425.719 595.681 423.628 592.459 420.271 590.24C424.005 591.681 428.451 591.361 432.264 589.96C433.925 589.349 435.481 588.551 436.781 587.571C441.058 584.343 443.126 579.758 444.102 575.225L444.603 575.505C447.131 576.974 450.308 577.741 453.484 577.721C455.07 577.709 456.649 577.528 458.141 577.11C462.816 575.813 466.445 572.516 467.319 568.77C468.091 565.467 466.234 561.513 462.063 560.482C465.929 559.971 469.161 557.386 469.662 554.407C472.013 556.087 474.496 557.819 477.597 558.464C485.129 560.035 486.146 554.314 487.009 550.066C488.768 554.646 496.172 557.401 501.967 555.626C495.019 558.752 491.346 565.603 493.418 571.562C488.938 570.026 483.369 571.825 480.559 574.905C477.748 577.986 477.232 581.986 477.74 585.721C474.346 585.689 471.535 588.003 470.653 590.511C469.772 593.018 470.363 595.675 470.962 598.231C468.506 600.986 466.268 603.946 465.446 607.223C465.247 608.015 465.152 608.833 465.152 609.652C465.149 612.199 466.14 614.744 468.396 616.589C468.845 616.952 469.357 617.309 469.549 617.787C469.809 618.43 469.432 619.11 469.191 619.759C467.639 623.888 471.256 627.897 476.248 629.105C476.753 629.226 477.258 629.352 477.793 629.413C480.577 629.736 483.656 629.087 485.426 627.413C484.967 627.845 489.997 628.551 492.645 628.894C493.471 628.998 494.081 629.073 494.198 629.09C496.153 629.335 497.69 629.664 499.307 629.569C500.347 629.505 501.42 629.275 502.656 628.727C505.968 627.269 508.523 624.897 509.943 622.188C510.655 620.828 511.103 619.387 511.175 617.923C515.15 617.926 518.496 615.364 519.799 612.493C521.103 609.623 520.809 606.491 520.5 603.462C521.318 604.171 522.271 604.793 523.277 605.349C524.954 606.274 526.834 606.949 528.88 607.073C532.158 607.274 535.711 605.851 536.671 603.444C536.664 605.929 539.35 608.113 542.481 608.77C545.616 609.424 549.018 608.776 551.848 607.551C559.783 604.11 563.407 595.83 559.779 589.424C567.246 588.254 573.282 583.003 573.844 577.191C573.904 576.562 573.953 575.853 574.571 575.436C574.981 575.159 575.554 575.081 576.085 574.98C576.895 574.825 577.653 574.568 578.38 574.268C579.913 573.637 581.221 572.715 582.272 571.629C582.965 570.914 583.579 570.156 584.009 569.335C585.395 566.672 585.422 563.683 584.729 560.868C583.802 557.067 581.044 553.081 576.187 552.012C574.209 551.579 572.065 551.686 570.099 552.159L569.454 552.36C569.488 552.084 569.56 551.813 569.56 551.536C569.552 549.366 568.343 547.213 566.289 545.718C569.699 548.202 576.651 546.614 579.608 544.582C582.992 542.26 584.868 538.568 584.028 535.112C589.386 536.928 596.209 535.77 600.06 532.389C597.712 536.888 598.839 542.34 602.889 546.066C599.125 546.715 596.718 549.885 597.011 552.827C597.309 555.767 599.796 558.372 602.882 560.147C600.546 561.683 602.181 564.793 604.814 566.015C607.938 567.459 612.158 567.372 615.172 565.799C618.789 563.914 619.271 561.216 619.256 558.162C620.36 558.686 621.615 558.977 622.896 559.147C625.017 559.432 627.244 559.28 629.184 558.559L629.742 558.277C632.541 557.049 634.561 554.81 634.922 552.355C639.632 555.407 647.529 553.47 650.807 549.47C654.085 545.467 653.738 540.308 652.178 535.741C657.397 538.625 665.105 538.522 670.192 535.499C672.211 534.3 673.809 532.706 674.917 530.94C677.238 527.231 677.207 522.559 674.14 519.181C671.077 515.804 664.793 514.164 659.936 515.925C656.741 512.253 649.989 511.115 644.47 512.386C643.573 512.594 642.748 512.925 641.908 513.228C643.328 508.447 641.908 503.127 637.605 499.452C643.415 499.654 648.897 496.591 651.391 492.57C655.535 485.899 649.846 476.524 639.873 475.648C641.267 475.366 642.537 474.876 643.667 474.239C645.427 473.25 646.855 471.899 647.902 470.368C648.923 468.881 649.586 467.23 649.839 465.582C650.521 461.138 648.848 456.703 647.103 452.432C649.624 452.057 651.941 451.184 653.998 450.022C655.068 449.417 656.048 448.726 656.933 447.959C660.264 445.1 662.242 441.302 661.794 437.478C663.983 441.867 670.192 444.873 676.314 444.507C673.447 446.028 670.667 447.777 668.945 450.1C667.223 452.423 666.741 455.432 668.481 457.746C668.994 458.42 669.676 459.023 670.105 459.729C670.663 460.645 670.765 461.674 671.043 462.659C672.592 468.19 680.014 472.031 687.403 472.216C688.043 472.233 688.673 472.196 689.306 472.167C691.344 472.075 693.348 471.781 695.285 471.279C695.684 474.42 695.959 477.564 696.125 480.717C700.39 483.864 706.215 485.812 711.968 484.994C712.892 484.861 713.871 484.665 714.753 484.925C715.876 485.253 716.426 486.196 717.059 486.982C718.652 488.965 721.305 490.106 724.24 490.559C726.568 490.919 729.066 490.85 731.406 490.314C732.823 489.988 734.145 489.478 735.343 488.844L736.056 488.498C741.696 485.077 743.885 479.23 743.994 473.726C747.031 475.236 750.919 475.086 754.499 474.492L755.406 474.357C757.69 473.922 759.89 473.299 762.045 472.593C769.954 470.008 776.883 465.708 781.845 460.331C785.194 462.276 789.098 463.596 793.238 464.239C794.252 464.397 795.284 464.498 796.32 464.579C800.152 464.878 804.063 464.671 807.778 463.927C809.575 463.567 811.308 463.066 813 462.498V386.353Z" fill="#49772C"/>
<path d="M605.417 632.007C601.917 630.329 598.643 629.837 595.082 630.03C596.269 626.776 596.276 623.269 594.946 620.047C599.991 621.963 606.577 619.635 609.117 615.787C611.656 611.94 610.763 607.182 608.137 603.369C607.715 602.756 607.244 602.15 607.007 601.482C606.739 600.73 606.777 599.931 606.717 599.153C606.332 594.364 601.502 589.882 595.331 589.029C589.159 588.173 582.351 591.329 580.908 595.995C580.557 597.116 580.501 598.266 580.475 599.421C575.897 600.058 571.519 601.401 568.361 603.516C562.039 607.741 559.978 615.831 562.175 621.793C557.397 621.744 552.65 623.568 549.851 626.528C545.179 631.468 546.241 639.791 556.177 639.615C552.778 642.012 550.107 645.211 549.768 648.739C549.425 652.266 551.855 656.056 556.15 657.364C554.598 661.969 556.964 667.206 561.903 670.093C566.847 672.981 574.073 673.353 579.472 670.995C584.875 668.635 588.134 663.687 587.396 658.966C591.665 660.399 596.804 660.125 600.82 658.324L601.193 658.191C602.531 657.551 603.642 656.693 604.641 655.756C606.675 653.851 607.986 651.485 608.103 649.024C608.137 648.286 608.085 647.517 608.461 646.834C608.725 646.35 609.196 645.943 609.584 645.511C613.314 641.335 610.733 634.557 605.417 632.007Z" fill="#354427"/>
<path d="M617.764 599.021C625.646 606.733 624.474 614.972 624.41 624.217C624.361 631.669 624.312 639.128 623.913 646.574C623.491 654.514 625.137 664.828 621.596 672.321C613.405 668.981 610.221 661.482 604.641 655.756C603.642 656.693 602.531 657.551 601.193 658.191L600.82 658.324C601.985 659.376 603.13 660.451 604.211 661.572C606.803 664.257 608.586 667.33 611.069 670.07C613.619 672.892 617.282 674.765 619.994 677.419C625.16 682.482 623.89 689.701 624.278 695.69C624.892 705.163 623.705 714.494 623.841 723.909C623.905 728.359 625.062 732.883 625.246 737.414C625.484 743.272 625.785 749.126 626.158 754.979C626.908 766.688 627.929 778.382 629.221 790.06C631.814 813.414 635.498 836.703 640.276 859.855C643.855 877.19 648.026 894.706 649.906 912.19C652.894 912.208 655.852 912.519 658.768 913C657.167 906.986 657.325 900.72 659.729 894.867C661.221 891.239 663.628 887.841 666.669 884.821C664.246 874.311 661.816 863.801 659.661 853.259C656.112 835.896 654.198 818.383 650.95 800.953C642.454 755.371 638.023 709.69 635.645 663.811C635.529 661.557 635.416 659.266 636.113 657.073C636.787 654.94 638.196 652.992 639.477 651.033C643.381 645.041 646.161 638.707 648.369 632.228C646.689 631.295 645.276 630.113 644.157 628.759C642.552 634.421 640.596 640.024 638.256 645.537C637.586 647.107 636.444 648.952 634.289 649.07C632.921 646.862 632.948 644.318 632.997 641.871C633.17 633.839 633.34 625.811 633.513 617.779C633.562 615.375 633.63 612.903 634.809 610.672C635.815 608.761 637.548 607.191 639.372 605.652C639.025 605.173 638.716 604.678 638.505 604.162C637.755 602.352 637.725 600.453 637.921 598.548C637.183 599.329 636.41 600.093 635.593 600.828C634.892 601.464 633.731 602.13 632.842 601.652C632.303 601.361 632.202 600.793 632.149 600.289C631.844 597.415 631.546 594.539 631.256 591.663C629.063 589.666 627.673 587.113 627.53 584.499C627.383 581.905 628.347 579.355 630.043 577.101C629.658 570.827 629.493 564.548 629.741 558.277L629.18 558.559C627.243 559.28 625.017 559.432 622.895 559.147C623.585 563.894 624.014 568.66 624.267 573.424C624.704 581.6 625.145 589.853 622.526 597.845C619.15 597.266 615.01 591.712 612.538 589.836C608.13 586.49 603.356 583.441 598.597 580.395C593.496 577.133 588.198 573.816 582.272 571.629C581.221 572.715 579.913 573.637 578.38 574.268C591.02 578.715 601.419 586.349 611.434 593.842C613.642 595.496 615.861 597.153 617.764 599.021Z" fill="#262E24"/>
<path d="M696.125 480.717C695.959 477.564 695.68 474.42 695.285 471.279C693.348 471.78 691.344 472.074 689.305 472.167C690.251 474.239 691.468 476.221 693.103 478.037C693.97 479 695.006 479.893 696.125 480.717Z" fill="white"/>
<path d="M696.125 480.717L698.284 480.651C698.114 477.469 697.832 474.294 697.432 471.121L697.172 469.051L694.595 469.714C692.839 470.167 691.027 470.435 689.177 470.518L686.325 470.648L687.267 472.711C688.262 474.89 689.558 477.008 691.321 478.971C692.297 480.051 693.431 481.023 694.625 481.905L698.498 484.766L698.284 480.651L696.125 480.717L697.624 479.53C696.584 478.76 695.646 477.951 694.878 477.098C693.378 475.432 692.24 473.587 691.344 471.622L689.305 472.167L689.433 473.815C691.66 473.714 693.853 473.391 695.974 472.844L695.285 471.279L693.137 471.438C693.529 474.547 693.804 477.662 693.97 480.783L696.125 480.717L697.624 479.53L696.125 480.717Z" fill="#211D1D"/>
<path d="M511.45 203.588C511.488 202.303 511.563 200.931 510.704 199.828C509.845 198.721 507.633 198.139 506.454 199.055C508.149 205.539 508.978 212.153 508.926 218.767C504.231 215.211 500.516 210.9 498.093 206.199C498.101 207.055 496.699 207.58 496.56 208.43C496.481 208.911 496.835 209.366 497.17 209.779C500.071 213.309 504.05 216.776 506.164 220.6C507.347 222.744 508.293 225.113 509.088 227.537C510.915 226.888 512.795 226.346 514.705 225.88C513.243 218.465 511.243 211.067 511.45 203.588Z" fill="#262E24"/>
<path d="M501.556 226.139C501.315 225.859 501.047 225.571 500.655 225.416C499.962 225.145 499.077 225.395 498.553 225.839C498.033 226.28 497.788 226.868 497.562 227.439C498.847 228.606 499.781 229.937 500.595 231.318C501.703 230.741 502.837 230.182 504.009 229.649C503.3 228.442 502.517 227.257 501.556 226.139Z" fill="#262E24"/>
<path d="M735.336 645.018C729.198 648.226 721.267 647.989 713.995 646.272C712.846 647.949 711.603 649.577 710.16 651.093C711.249 698.823 713.637 746.356 720.513 793.91C721.644 801.728 722.921 809.55 723.286 817.412C723.818 828.812 722.435 840.207 721.372 851.59C720.525 860.7 719.959 869.824 719.526 878.951C722.133 880.573 724.432 882.478 726.244 884.671C735.961 873.176 751.356 864.565 768.627 860.968C769.987 860.688 771.374 860.49 772.753 860.268C774.06 821.677 759.396 781.016 752.954 742.861C747.306 709.411 742.558 675.86 739.118 642.231C738.041 643.283 736.813 644.249 735.336 645.018Z" fill="#262E24"/>
<path d="M743.896 94.8872C741.639 99.1351 738.862 103.219 735.596 107.066C734.047 108.89 718.886 125.302 715.352 120.389C714.979 119.867 715.031 119.236 715.095 118.645C716.03 109.98 715.578 101.273 715.303 92.5932C715.043 84.3252 716.113 76.0196 715.521 67.8178C715.31 64.8639 714.67 61.9101 715.001 58.9591C715.242 56.8178 715.996 54.7312 716.553 52.6246C716.625 52.3566 716.651 52.0829 716.715 51.8149C714.96 50.861 713.336 49.7658 711.923 48.5209L711.701 48.2962C711.508 48.8639 711.339 49.4315 711.09 49.9877C708.728 50.0943 706.501 49.0454 704.907 47.7082C703.31 46.371 702.198 44.7486 700.865 43.2529C699.636 41.8811 698.227 40.613 697.022 39.2297C695.646 37.6504 694.557 35.9357 693.476 34.2268C692.067 32.0049 690.658 29.783 689.249 27.5611C687.67 28.0308 685.993 28.3334 684.298 28.4804C687.011 32.1086 689.965 35.6448 692.919 39.1462C695.492 42.1981 698.103 45.2845 701.596 47.7399C703.619 49.1578 705.928 50.3653 707.575 52.0454C710.83 55.3711 710.875 59.884 710.533 64.031C710.469 64.763 710.254 65.6506 709.346 65.8869C707.876 66.2702 707.089 64.6391 706.697 63.4893C705.646 60.4086 702.07 58.2702 698.634 56.4691C688.371 51.0944 677.233 46.4747 667.354 40.7715C666.759 42.2787 666.051 43.76 665.229 45.2038C673.515 48.8292 682.38 51.7025 690.232 55.8553C716.316 69.6479 708.792 96.6135 706.746 117.472C705.303 132.156 704.772 146.893 705.13 161.617C707.669 161.147 710.299 161.023 712.895 161.222C712.786 153.853 712.978 146.478 713.539 139.121C713.701 136.994 713.897 134.841 714.79 132.824C716.064 129.954 718.656 127.556 721.195 125.23C730.739 116.484 740.478 107.426 747.713 97.5386C746.356 96.7345 745.083 95.8469 743.896 94.8872Z" fill="#262E24"/>
<path d="M788.691 306.333C784.365 308.48 779.772 310.379 775.217 312.168C771.702 313.549 768.126 314.918 764.276 315.592C756.605 316.935 748.38 315.436 740.818 317.099C747.916 308.742 757.961 301.86 769.607 297.381C777.007 294.537 785.085 292.589 792.398 289.701C790.488 287.332 789.226 284.655 788.781 281.874C775.406 287.404 761.51 292.451 750.806 300.583C748.432 302.387 745.754 304.491 742.408 304.341C744.277 295.399 746.142 286.456 748.01 277.517C748.334 275.963 748.666 274.39 749.472 272.943C751.401 269.491 755.697 267.24 759.57 264.935C765.323 261.508 770.541 257.563 775.119 253.223C772.983 252.966 770.892 252.577 768.993 251.808C768.22 251.493 767.493 251.102 766.826 250.655C762.007 255.055 757.185 259.456 752.366 263.857C748.523 267.364 744.653 270.906 741.937 274.984C736.971 282.442 736.259 291.067 734.04 299.266C731.82 307.465 727.299 316.082 717.744 320.168C716.55 316.139 716.365 311.978 716.184 307.848C715.634 295.16 715.08 282.474 714.53 269.788C714.519 269.525 714.515 269.246 714.708 269.03C715.024 268.669 715.698 268.661 716.264 268.681C721.938 268.903 725.348 267.805 730.377 266.301C731.877 265.851 733.459 265.021 733.561 263.79C733.633 262.868 732.83 261.989 733.004 261.076C727.574 263.773 714.519 265.6 713.928 258.995C713.008 248.715 713.125 238.384 714.237 228.116C708.6 229.675 702.21 229.626 696.732 227.805C696.332 238.551 695.937 249.298 695.541 260.044C687.753 259.223 681.827 254.006 679.069 248.375C676.314 242.744 676.02 236.62 674.969 230.66C673.462 222.153 670.346 213.908 666.601 205.802C665.426 206.582 664.167 207.274 662.826 207.856C669.084 219.407 672.366 231.903 672.294 244.407C672.29 244.715 672.283 245.041 672.072 245.303C671.413 246.122 669.766 245.6 668.779 245.006C662.419 241.185 656.059 237.369 649.699 233.551C647.879 232.456 646.082 231.338 644.285 230.217C642.616 231.819 640.837 233.338 639.01 234.635C644.522 238.612 650.585 242.22 656.587 245.761C668.986 253.076 681.39 260.393 693.789 267.71C694.908 268.37 696.061 269.058 696.732 270.01C697.572 271.2 697.542 272.623 697.493 273.972C696.513 299.206 695.01 324.454 695.334 349.682C697.715 349.212 700.115 349.295 702.04 350.434C704.836 345.8 710.231 342.229 716.467 340.448C716.614 339.114 716.919 337.805 717.635 336.56C718.588 334.9 720.107 333.477 721.61 332.076C724.289 329.578 726.964 327.079 729.643 324.581C730.664 323.627 731.719 322.655 733.105 322.03C735.253 321.065 737.887 321.068 740.377 321.024C757.392 320.736 774.226 316.967 788.92 310.41C788.747 309.258 788.668 308.096 788.664 306.981L788.691 306.333Z" fill="#262E24"/>
<path d="M737.031 620.517L736.956 619.744C736.839 618.326 736.7 616.88 736.557 615.424C735.486 616.744 734.311 618.024 733.124 619.277C734.575 619.442 735.867 619.894 737.031 620.517Z" fill="white"/>
<path d="M737.031 620.517L739.186 620.393L739.111 619.623L736.956 619.744L739.111 619.643C738.994 618.211 738.851 616.756 738.711 615.303L738.218 610.246L734.721 614.554C733.697 615.819 732.547 617.067 731.372 618.312L729.292 620.517L732.811 620.911C733.866 621.032 734.838 621.361 735.795 621.871L739.525 623.862L739.186 620.393L737.031 620.517L738.267 619.162C736.895 618.427 735.279 617.851 733.44 617.643L733.124 619.277L734.876 620.246C736.07 618.98 737.276 617.672 738.391 616.295L736.556 615.424L734.405 615.548C734.544 617.004 734.687 618.444 734.8 619.848V619.859L734.88 620.64L737.031 620.517L738.267 619.162L737.031 620.517Z" fill="#211D1D"/>
<path d="M562.36 895.689C566.549 896.674 570.547 898.034 574.379 899.634C568.976 885.634 564.583 871.331 560.272 857.155C553.34 834.36 546.377 811.351 545.966 787.947C545.767 776.486 547.134 764.918 544.591 753.621C542.489 744.307 537.779 735.431 535.549 726.131C533.646 718.209 533.57 710.105 533.239 702.053C531.882 669.275 521.355 637.808 523.277 605.349C522.271 604.793 521.318 604.171 520.5 603.462C520.809 606.49 521.103 609.623 519.799 612.493C518.496 615.364 515.146 617.926 511.175 617.923C511.103 619.387 510.655 620.828 509.943 622.188C512.471 645.154 514.317 668.162 515.44 691.191C515.587 694.209 515.606 697.511 513.157 699.88C508.587 695.713 504.013 691.546 499.446 687.382C497.913 685.987 496.342 684.531 495.739 682.771C494.846 680.16 496.24 677.459 497.427 674.923C504.22 660.448 504.751 644.355 499.307 629.568C497.687 629.664 496.153 629.335 494.198 629.09C494.081 629.073 493.471 629.001 492.642 628.894C494.228 633.338 495.565 637.828 496.375 642.393C498.082 652.021 497.419 662.102 492.37 671.015C491.722 672.165 491.003 673.283 490.283 674.407C487.612 668.185 484.94 661.964 482.269 655.742C479.504 649.292 476.708 642.736 476.41 635.952C476.308 633.678 476.44 631.37 476.248 629.104C471.256 627.897 467.639 623.888 469.191 619.759C469.432 619.11 469.809 618.43 469.549 617.787C469.357 617.309 468.845 616.954 468.396 616.588C466.139 614.744 465.145 612.199 465.149 609.652C464.478 608.038 463.928 606.398 463.596 604.721C463.091 602.196 462.971 599.6 461.938 597.171C460.966 594.894 459.233 592.862 457.828 590.727C455.175 586.698 453.729 582.228 453.484 577.721C450.307 577.741 447.131 576.974 444.599 575.505C445.387 578.614 446.174 581.724 446.965 584.833C447.734 587.876 448.555 591.018 450.85 593.571C453.145 596.127 456.848 598.026 458.039 600.995C458.483 602.096 458.329 603.568 456.958 604.049C455.718 604.485 454.316 603.842 453.212 603.228C450.39 601.655 447.568 600.081 444.746 598.511C440.376 596.075 435.949 593.6 432.622 590.343L432.264 589.96C428.451 591.361 424.005 591.681 420.271 590.24C423.628 592.459 425.719 595.683 426.262 599.041C427.724 599.021 429.204 598.943 430.655 599.006C438.092 599.343 444.132 603.531 449.441 607.528C454.49 611.326 459.584 615.266 462.688 620.136C468.686 629.551 466.347 640.79 469.787 650.929C471.429 655.765 474.364 660.278 476.972 664.86C477.725 666.191 478.151 668.165 476.395 668.716C474.93 669.177 473.49 668.093 472.405 667.209C464.99 661.157 452.41 659.989 445.372 653.681C441.525 650.229 439.878 645.707 437.497 641.557C433.756 635.03 427.931 628.839 424.502 622.318C422.762 623.73 420.765 624.704 418.598 625.442C425.105 637.891 430.365 650.837 442.542 660.257C448.537 664.889 455.865 668.361 462.447 672.5C480.385 683.788 492.201 699.638 503.613 715.117C506.951 719.647 510.308 724.209 512.513 729.128C515.037 734.762 515.986 740.725 516.921 746.636C519.016 759.907 521.114 773.178 523.209 786.449C528.88 822.322 534.603 858.204 541.532 893.948C548.513 893.498 555.664 894.112 562.36 895.689Z" fill="#262E24"/>
<path d="M742.852 627.528C741.952 624.802 739.948 622.073 737.031 620.517C735.867 619.894 734.575 619.442 733.124 619.277C734.311 618.024 735.487 616.744 736.557 615.424C737.875 613.799 739.021 612.105 739.71 610.269C741.255 606.145 740.098 602.05 735.449 599.701L734.85 599.381C731.854 598.061 722.39 595.283 719.327 597.966C721.821 595.785 723.976 592.998 723.317 590.148C722.657 587.297 717.82 585.11 714.9 586.949C715.996 585.721 715.325 583.914 713.826 582.966C712.33 582.015 710.25 581.779 708.31 581.882C705.906 582.006 703.698 582.629 701.682 583.551C696.717 585.822 693.103 590.087 691.879 594.531C692.192 592.355 690.956 590.087 688.714 588.73C686.472 587.367 683.304 586.96 680.606 587.686C682.904 585.998 685.293 584.194 686.174 581.854C687.056 579.511 685.768 576.502 682.701 575.839C689.083 574.773 694.972 572.049 699.166 568.217C699.497 567.917 699.81 567.6 700.115 567.274C701.219 566.107 702.089 564.807 702.24 563.384C702.436 561.493 701.279 559.698 699.482 558.369C698.491 557.634 697.308 557.035 696.035 556.649C691.566 555.3 686.288 556.121 682.35 558.231C680.222 559.369 678.481 560.859 677.038 562.513C675.715 561.505 674.276 560.591 672.535 560.124C670.011 559.45 667.215 559.802 664.646 560.366C664.073 560.493 663.504 560.655 662.935 560.816C660.057 558.911 655.63 558.165 652.035 559.338C646.531 561.136 643.69 566.237 644.609 570.761C641.821 569.712 638.437 570.704 635.913 572.093C633.524 573.41 631.512 575.147 630.043 577.101C628.347 579.355 627.383 581.905 627.53 584.499C627.673 587.113 629.063 589.666 631.256 591.663C633.133 593.369 635.578 594.675 638.415 595.208C638.211 596.312 638.038 597.43 637.921 598.548C637.725 600.453 637.756 602.352 638.505 604.162C638.716 604.678 639.025 605.174 639.372 605.652C640.973 607.851 643.863 609.548 647.084 609.352C641.591 613.589 639.647 620.303 642.284 625.917C642.755 626.92 643.415 627.86 644.157 628.759C645.276 630.113 646.689 631.295 648.369 632.229C648.806 632.474 649.213 632.744 649.684 632.949C653.177 634.471 657.638 634.776 661.255 633.442C662.826 636.341 667.539 637.785 671.526 637.056C675.516 636.329 678.665 633.811 680.248 630.914C680.636 630.2 680.941 629.462 681.179 628.713C684.208 630.672 688.096 631.86 692.071 631.736C685.847 634.563 683.692 641.563 687.614 646.217C680.621 645.318 673.082 648.281 669.958 653.148C668.753 655.03 668.169 657.2 668.771 659.243C668.854 659.52 669.016 659.779 669.144 660.047C668.221 661.243 667.52 662.52 667.34 663.9C667.012 666.353 668.745 669.119 671.861 669.759C674.208 670.243 676.702 669.445 678.673 668.359C682.407 666.289 685.025 663.076 685.809 659.598C693.224 661.102 701.249 658.459 706.652 654.292C707.941 653.298 709.09 652.22 710.16 651.093C711.603 649.577 712.846 647.949 713.995 646.272C721.267 647.989 729.198 648.226 735.336 645.018C736.813 644.249 738.041 643.283 739.119 642.232C743.21 638.231 744.51 632.54 742.852 627.528Z" fill="#354427"/>
<path d="M636.994 350.166C636.433 350.425 635.83 350.615 635.257 350.857C636.173 351.373 637.092 351.889 638 352.419C637.921 351.555 637.808 350.696 637.646 349.84L636.994 350.166Z" fill="white"/>
<path d="M636.994 350.166L635.875 348.754C635.51 348.93 634.933 349.111 634.217 349.411L631.263 350.653L633.972 352.186C634.896 352.705 635.807 353.215 636.689 353.731L640.479 355.947L640.151 352.307C640.072 351.408 639.956 350.506 639.782 349.601L639.292 347.042L635.811 348.785L636.994 350.166L635.875 348.754L636.994 350.166L638.177 351.549L638.829 351.221L637.646 349.84L635.51 350.079C635.664 350.886 635.77 351.702 635.845 352.532L638 352.419L639.307 351.105C638.381 350.564 637.45 350.042 636.542 349.529L635.257 350.858L636.297 352.304C636.723 352.12 637.36 351.924 638.113 351.581L638.143 351.564L638.177 351.549L636.994 350.166Z" fill="#211D1D"/>
<path d="M790.646 475.66C789.938 477.735 789.067 479.798 787.632 481.639C785.51 484.354 782.27 486.432 779.094 488.455C775.157 490.962 771.219 493.47 767.282 495.98C766.031 496.775 764.664 497.608 763.04 497.683C762.188 489.337 761.898 480.965 762.045 472.593C759.89 473.299 757.69 473.922 755.406 474.357L754.498 474.492C756.254 488.582 755.983 502.818 753.654 516.859C753.051 520.501 752.306 524.144 750.96 527.669C750.776 528.156 750.55 528.672 750.026 528.983C748.519 529.888 746.571 528.38 745.719 527.069C738.094 515.277 734.544 501.983 735.343 488.844C734.145 489.481 732.819 489.988 731.406 490.314C731.214 503.89 735.309 517.51 743.399 529.602C744.16 530.744 744.977 531.917 745.049 533.193C745.105 534.17 744.729 535.124 744.344 536.055C742.351 540.914 740.204 545.732 737.905 550.51C736.903 552.588 735.351 554.986 732.476 555.237C734.096 533.576 727.032 512.167 724.24 490.562C721.305 490.106 718.652 488.965 717.058 486.982C716.425 486.196 715.875 485.253 714.749 484.925C713.871 484.665 712.891 484.861 711.968 484.994C706.215 485.812 700.39 483.864 696.125 480.717C696.377 485.507 696.453 490.3 696.166 495.089C696.102 496.164 695.443 497.617 694.06 497.406C693.416 497.308 692.994 496.847 692.628 496.432C687.535 490.631 680.425 485.879 672.226 482.798C671.168 482.4 670.071 482.017 669.212 481.397C666.861 479.694 667.034 476.867 666.936 474.392C666.71 468.631 664.114 463.103 661.549 457.685C660.008 454.443 658.474 451.201 656.933 447.959C656.044 448.726 655.068 449.417 653.994 450.023C655.991 455.195 657.988 460.366 659.985 465.539C661.454 469.348 662.882 473.608 660.528 477.15C655.987 475.282 651.76 472.985 647.902 470.369C646.854 471.899 645.426 473.25 643.667 474.239C654.171 480.827 665.606 486.55 677.723 491.242C682.546 493.106 687.968 495.233 689.562 499.181C689.271 498.547 680.414 499.003 679.283 499.167C678.989 500.063 678.876 500.991 678.94 501.916C678.929 501.752 688.627 503.32 689.599 503.645C691.694 504.351 694 505.377 695.386 506.804C699.572 511.107 699.004 517.781 698.864 522.81C698.54 534.663 698.792 546.522 699.482 558.369C701.279 559.698 702.436 561.493 702.24 563.384C702.089 564.807 701.219 566.107 700.115 567.274C700.552 572.706 701.038 578.133 701.682 583.551C703.698 582.629 705.906 582.006 708.31 581.882C710.25 581.779 712.33 582.015 713.826 582.966C715.325 583.914 715.996 585.721 714.9 586.949C717.82 585.11 722.657 587.297 723.317 590.147C723.976 592.998 721.821 595.784 719.327 597.966C722.39 595.283 731.854 598.061 734.85 599.381L735.449 599.701C735.43 596.937 735.55 594.202 735.938 591.542C737.031 584.047 733.015 575.83 737.189 568.591C739.661 564.306 744.589 561.182 748.18 557.386C752.694 552.605 755.03 546.839 756.755 541.089C758.699 534.631 759.977 528.052 760.568 521.438C761.035 516.228 761.197 510.692 764.954 506.328C768.65 502.034 775.119 499.717 780.217 496.363C787.813 491.369 792.281 484.046 794.421 476.559C795.544 472.619 796.068 468.611 796.32 464.579C795.284 464.498 794.252 464.397 793.238 464.239C792.714 468.092 791.931 471.913 790.646 475.66Z" fill="#262E24"/>
<path d="M675.142 384.763C676.668 383.276 678.405 381.924 680.406 380.837C677.919 378.408 675.504 375.872 674.208 372.956L674.095 372.641C673.409 376.699 673.711 380.84 675.142 384.763Z" fill="white"/>
<path d="M675.143 384.763L676.842 385.78C678.266 384.391 679.86 383.157 681.657 382.183L683.503 381.18L682.105 379.82C679.641 377.42 677.399 375.022 676.25 372.422L674.208 372.956L676.288 372.509L676.171 372.198L673.311 364.359L671.951 372.431C671.71 373.872 671.586 375.327 671.586 376.78C671.586 379.618 672.061 382.46 673.067 385.206L674.212 388.348L676.842 385.78L675.143 384.763L677.222 384.316C676.333 381.878 675.904 379.339 675.904 376.78C675.904 375.471 676.017 374.157 676.235 372.852L674.095 372.641L672.015 373.085L672.128 373.399L672.143 373.443L672.162 373.486C673.605 376.722 676.194 379.394 678.707 381.855L680.406 380.837L679.159 379.492C676.947 380.69 675.067 382.16 673.443 383.742L675.143 384.763L677.222 384.316L675.143 384.763Z" fill="#211D1D"/>
<path d="M673.021 359.29C673.048 351.212 670.621 343.174 666.243 335.826C665.154 336.376 664.043 336.903 662.837 337.304C662.381 337.454 661.903 337.569 661.432 337.693C662.449 339.119 663.398 340.572 664.193 342.079C669.016 351.252 669.027 361.428 668.971 371.313C668.971 371.745 668.937 372.226 668.526 372.517C667.728 373.085 666.492 372.431 665.757 371.817C657.295 364.731 647.973 358.246 638 352.419C638.351 356.336 637.868 360.31 636.542 364.12C648.682 370.111 659.827 377.281 669.578 385.44C664.891 385.575 660.618 383.417 655.984 382.872C652.992 382.518 649.929 382.846 646.918 382.592C640.295 382.036 635.009 378.875 629.692 375.615C628.769 376.693 627.801 377.748 626.757 378.762C628.035 379.48 629.312 380.198 630.593 380.915C633.34 382.457 636.165 384.031 639.443 384.748C643.249 385.581 647.303 385.183 651.259 385.348C658.316 385.641 665.022 387.768 670.87 390.863C671.808 388.656 673.266 386.595 675.143 384.763C673.711 380.84 673.409 376.699 674.095 372.641C672.332 368.382 673.006 363.771 673.021 359.29Z" fill="#262E24"/>
<path d="M517.765 465.677C518.345 468.201 518.183 470.786 518.017 473.348C517.286 484.749 516.555 496.152 515.824 507.556C517.833 507.902 519.788 508.4 521.672 509.034C521.352 485.749 529.644 462.478 530.801 439.048C531.227 430.405 530.688 421.731 530.243 413.071C527.685 412.521 525.315 411.446 523.397 410.025C522.994 422.192 522.719 434.336 522.407 446.509C522.354 448.613 522.294 450.749 521.506 452.766C521.257 453.403 520.594 454.161 519.769 453.953C519.347 453.847 519.102 453.518 518.899 453.216C512.264 443.21 510.591 430.962 510.568 419.137C509.502 419.573 508.082 420.106 506.533 420.636C506.899 433.002 508.055 445.429 513.854 456.91C515.312 459.795 517.064 462.631 517.765 465.677Z" fill="#262E24"/>
<path d="M495.573 478C498.342 487.737 499.977 497.628 501.303 507.547C503.221 507.219 505.173 507.037 507.139 506.974C502.558 482.57 496.077 458.374 487.687 434.57C486.274 435.244 483.621 436.267 481.067 436.991C483.682 444.117 486.296 451.247 488.915 458.374C491.304 464.881 493.692 471.394 495.573 478Z" fill="#262E24"/>
<path d="M569.737 546.896L566.289 545.718C567.22 546.398 568.429 546.75 569.737 546.896Z" fill="#49772C"/>
<path d="M537.229 533.994C517.825 526.233 524.302 509.991 524.302 509.991C523.454 509.625 522.561 509.334 521.672 509.034C519.788 508.398 517.833 507.902 515.824 507.556C512.98 507.066 510.056 506.879 507.14 506.974C505.173 507.034 503.221 507.219 501.304 507.547C498.357 508.052 495.494 508.836 492.856 509.965C494.597 505.069 496.349 500.121 496.5 495.052C496.654 489.982 495.045 484.703 490.743 480.844C489.563 479.786 488.184 478.832 487.34 477.605C486.38 476.21 486.191 474.593 485.864 473.04C484.112 464.729 477.65 457.063 468.479 452.412C459.015 459.665 443.74 461.515 443.74 461.515C441.563 463.308 439.799 465.44 438.616 467.7C435.821 473.034 435.572 478.919 435.399 484.665C434.585 481.879 430.576 480.475 427.008 479.637C422.125 478.492 416.922 477.628 411.945 478.504C409.733 478.893 407.608 479.729 405.871 480.861C390.939 479.755 374.972 485.778 368.303 496.204C358.209 498.101 348.692 502.838 343.937 509.911C339.182 516.983 340.094 526.432 347.452 532.055C341.074 542.283 343.707 555.404 353.797 563.703C363.891 572.003 380.804 574.96 394.609 570.839C387.718 577.211 382.119 583.868 383.246 592.528C384.011 598.392 387.767 603.998 393.55 607.894C389.089 609.534 385.955 613.119 385.68 616.9C385.408 620.684 388.001 624.511 392.202 626.517C397.288 628.946 403.833 628.62 409.657 627.534C412.819 626.94 415.848 626.378 418.598 625.442C420.765 624.701 422.762 623.73 424.502 622.318C425.056 621.868 425.591 621.375 426.092 620.828C428.617 622.831 433.036 622.96 436.163 621.537C439.291 620.113 441.19 617.444 441.841 614.704C442.124 613.493 442.196 612.237 441.819 611.041C441.046 608.583 438.432 606.632 435.406 605.62C432.377 604.612 428.978 604.447 425.682 604.617C426.405 602.816 426.567 600.908 426.262 599.041C425.719 595.681 423.628 592.459 420.271 590.24C424.005 591.681 428.451 591.361 432.264 589.96C433.925 589.349 435.481 588.551 436.781 587.571C441.058 584.343 443.126 579.758 444.102 575.225L444.599 575.505C447.131 576.974 450.308 577.741 453.484 577.721C455.066 577.709 456.649 577.528 458.141 577.11C462.816 575.813 466.445 572.516 467.319 568.77C468.091 565.467 466.234 561.513 462.063 560.482C465.929 559.971 469.161 557.386 469.662 554.407C472.013 556.087 474.496 557.819 477.597 558.464C485.129 560.035 486.146 554.314 487.009 550.066C488.768 554.646 496.168 557.401 501.967 555.626C495.019 558.752 491.346 565.603 493.418 571.562C488.938 570.026 483.369 571.825 480.559 574.905C477.748 577.986 477.232 581.986 477.74 585.721C474.346 585.689 471.535 588.003 470.653 590.511C469.772 593.018 470.363 595.675 470.962 598.231C468.506 600.986 466.268 603.946 465.446 607.223C465.247 608.015 465.152 608.833 465.149 609.652C465.149 612.199 466.14 614.744 468.396 616.589C468.845 616.952 469.357 617.309 469.549 617.787C469.809 618.43 469.432 619.11 469.191 619.759C467.639 623.888 471.256 627.897 476.248 629.105C476.753 629.226 477.258 629.352 477.793 629.413C480.577 629.736 483.656 629.087 485.426 627.413C484.967 627.845 489.997 628.551 492.645 628.894C493.471 628.998 494.081 629.073 494.198 629.09C496.153 629.335 497.69 629.664 499.307 629.569C500.347 629.505 501.417 629.275 502.656 628.727C505.968 627.269 508.523 624.897 509.943 622.188C510.655 620.828 511.103 619.387 511.175 617.923C515.15 617.926 518.496 615.364 519.799 612.493C521.103 609.623 520.809 606.491 520.5 603.462C521.318 604.171 522.271 604.793 523.277 605.349C524.954 606.274 526.834 606.949 528.88 607.073C532.158 607.274 535.711 605.851 536.671 603.444C536.664 605.929 539.35 608.113 542.481 608.77C545.616 609.424 549.018 608.776 551.848 607.551C559.783 604.11 563.407 595.83 559.779 589.424C567.246 588.254 573.282 583.003 573.844 577.191C573.904 576.562 573.953 575.853 574.571 575.436C574.981 575.159 575.554 575.081 576.085 574.98C576.895 574.825 577.653 574.568 578.38 574.268C579.913 573.637 581.221 572.715 582.272 571.629C582.965 570.914 583.579 570.156 584.009 569.335C585.395 566.672 585.418 563.683 584.729 560.868C583.802 557.067 581.044 553.081 576.187 552.012C574.209 551.579 572.065 551.686 570.099 552.159L569.454 552.36C569.488 552.084 569.56 551.813 569.56 551.536C569.552 549.366 568.343 547.213 566.289 545.718C541.984 547.657 537.229 533.994 537.229 533.994Z" fill="#354427"/>
<path d="M580.987 220.257C577.212 221.358 573.636 222.773 570.46 224.738C566.718 227.055 563.689 229.989 561.225 233.148C560.852 233.62 560.566 234.127 560.219 234.609C554.206 231.073 548.321 227.519 540.638 225.637C532.104 223.551 523.084 223.833 514.705 225.879C512.795 226.346 510.918 226.888 509.087 227.537C507.81 227.986 506.548 228.467 505.323 229.003C504.86 229.202 504.457 229.439 504.008 229.646C502.837 230.182 501.703 230.738 500.595 231.318C477.838 243.159 468.275 263.234 468.162 283.577C465.981 283.618 463.773 283.854 461.719 284.217C436.506 288.672 415.026 302.993 404.137 320.947C393.252 338.903 392.638 360.071 400.705 378.875C402.555 383.192 404.936 387.448 408.063 391.299C406.959 395.685 407.155 400.261 408.855 404.532C412.016 412.483 420.139 419.186 430.263 422.195C420.033 426.973 411.379 435.639 413.534 444.656C415.109 451.23 422.181 456.417 430.191 459.086C434.464 460.512 439.083 461.319 443.74 461.515C443.74 461.515 459.014 459.665 468.479 452.412C472.107 447.665 474.247 442.259 474.669 436.772C474.545 438.368 477.71 437.942 481.067 436.991C483.621 436.267 486.274 435.244 487.687 434.57C488.12 434.365 488.444 434.189 488.606 434.071C492.867 430.849 495.802 426.919 496.198 422.256C496.07 423.777 501.834 422.241 506.533 420.636C508.081 420.106 509.502 419.573 510.568 419.137C511.51 418.751 512.177 418.44 512.384 418.282C516.947 414.743 520.609 409.44 519.158 404.405C519.78 406.564 521.325 408.495 523.397 410.025C525.315 411.446 527.685 412.521 530.243 413.071C531.999 413.446 533.834 413.584 535.661 413.426C534.497 418.227 533.336 423.186 534.746 427.95C536.155 432.711 540.834 437.264 547.168 437.893C544.135 449.325 553.494 461.922 567.886 465.78C562.077 465.527 555.886 466.06 551.241 468.743C546.595 471.423 544.236 476.769 547.371 480.518C539.768 482.201 533.92 487.063 530.477 492.516C527.029 497.968 525.646 504.026 524.301 509.991C524.301 509.991 517.825 526.233 537.228 533.994C537.228 533.994 541.983 547.657 566.289 545.718L569.736 546.896C573.214 547.28 577.46 546.058 579.608 544.582C582.991 542.259 584.868 538.568 584.027 535.112C589.385 536.928 596.208 535.77 600.059 532.389C597.712 536.888 598.835 542.34 602.889 546.066C599.125 546.715 596.717 549.885 597.011 552.827C597.309 555.767 599.795 558.372 602.877 560.147C600.545 561.683 602.18 564.793 604.814 566.015C607.937 567.459 612.157 567.372 615.171 565.799C618.785 563.914 619.271 561.216 619.256 558.162C620.36 558.686 621.614 558.977 622.895 559.147C625.016 559.432 627.243 559.28 629.184 558.559L629.741 558.277C632.541 557.049 634.56 554.81 634.922 552.355C639.631 555.407 647.529 553.47 650.807 549.47C654.084 545.467 653.738 540.308 652.178 535.741C657.396 538.625 665.105 538.522 670.191 535.499C672.211 534.3 673.808 532.706 674.916 530.939C677.237 527.231 677.207 522.559 674.14 519.181C671.077 515.804 664.792 514.164 659.936 515.925C656.741 512.253 649.989 511.115 644.469 512.386C643.572 512.594 642.747 512.925 641.907 513.228C643.324 508.447 641.903 503.127 637.604 499.452C643.414 499.654 648.896 496.591 651.391 492.57C655.535 485.899 649.846 476.524 639.873 475.648C641.267 475.366 642.536 474.876 643.667 474.239C645.426 473.25 646.854 471.899 647.902 470.368C648.923 468.881 649.586 467.23 649.838 465.582C650.52 461.138 648.847 456.703 647.099 452.432C649.623 452.057 651.941 451.184 653.998 450.022C655.068 449.417 656.047 448.726 656.933 447.959C660.263 445.1 662.242 441.302 661.793 437.478C661.793 437.478 676.382 435.29 682.855 420.855C689.324 406.42 668.835 400.232 668.835 400.232L668.063 397.843C657.426 394.967 645.008 399.95 638.162 407.031C638.934 402.025 636.617 396.789 632.028 393.169C627.439 389.549 620.665 387.621 614.098 388.059C618.822 385.411 623.129 382.281 626.757 378.76C627.801 377.748 628.769 376.693 629.696 375.616C631.941 373.002 633.833 370.218 635.242 367.275C635.736 366.241 636.169 365.186 636.542 364.12C637.868 360.31 638.35 356.336 638 352.419C637.092 351.889 636.176 351.373 635.257 350.857C635.83 350.615 636.436 350.425 636.994 350.166L637.646 349.84C640.66 348.388 643.486 346.61 645.151 344.212C646.945 341.644 647.137 338.267 644.823 335.955C649.382 338.751 655.885 339.16 661.431 337.693C661.906 337.569 662.381 337.454 662.837 337.304C664.043 336.901 665.154 336.376 666.243 335.826C670.406 333.716 673.737 330.65 676.107 327.255C678.239 324.2 679.724 320.707 678.982 317.289C678.243 313.872 674.777 310.641 670.274 310.278C677.727 303.151 679.129 292.635 673.703 284.505C670.58 279.828 663.383 275.681 657.227 278.001C658.76 271.312 650.935 264.874 642.175 263.747C637.559 263.154 632.914 263.736 628.528 265.021L628.6 264.897C632.284 257.05 633.302 247.323 629.948 239.179C619.203 209.315 580.987 220.257 580.987 220.257Z" fill="#49772C"/>
<path d="M689.456 171.542C692.904 164.009 695.699 156.075 694.724 148.127C694.26 144.392 692.787 140.657 690.421 137.36C693.062 130.977 694.29 124.227 692.881 117.648C691.186 109.737 685.316 102.126 676.13 98.2646C675.455 97.9822 674.736 97.694 674.344 97.1897C673.7 96.3655 674.174 95.3194 674.608 94.4174C681.325 80.4259 673.315 63.1865 656.556 55.5784C660.166 52.5092 663.071 48.9847 665.23 45.2037C666.051 43.7599 666.759 42.2786 667.355 40.7714C669.438 35.5062 670.124 29.9183 669.19 24.463C631.448 7.03343 615.296 -15.9494 615.296 -15.9494C600.666 -6.71883 593.963 8.96431 597.494 23.1229C586.149 22.633 574.571 24.8693 564.281 28.7079C556.226 31.7137 548.69 35.7281 543.027 41.0423C533.371 50.1029 530.194 63.0656 541.517 72.2703C549.798 78.9995 565.513 79.8381 573.915 73.1954C568.557 82.8294 569.548 94.3914 576.507 103.406C579.744 107.596 584.261 111.149 589.502 113.905C584.668 116.069 580.426 118.982 577.291 122.55C575.927 124.098 574.571 125.864 572.261 126.458C571.127 126.749 569.899 126.712 568.704 126.732C559.975 126.873 551.448 130.403 546.524 135.919C544.109 138.628 542.605 141.778 542.04 145.026L542.003 145.04C535.006 147.942 531.393 153.403 531.201 159.395C531.012 165.28 534.211 171.038 539.034 175.623C541.728 178.179 544.923 180.372 548.363 182.337C548.988 186.706 550.506 190.986 553.234 194.842C557.379 200.709 564.477 205.516 572.947 207.095C574.91 207.461 577.005 207.614 579.028 207.493C579.017 211.153 579.454 214.813 580.388 218.401C580.546 219.015 580.754 219.637 580.987 220.257C580.987 220.257 619.203 209.315 629.949 239.179C633.204 238.07 636.237 236.588 638.863 234.747L639.01 234.635C640.838 233.338 642.616 231.819 644.285 230.217C646.47 228.122 648.463 225.882 650.027 223.718C650.826 222.609 656.101 209.951 652.713 209.839C656.27 209.957 659.733 209.191 662.826 207.856C664.167 207.274 665.426 206.58 666.601 205.802C667.984 204.885 669.227 203.853 670.305 202.729C687.893 195.617 689.456 171.542 689.456 171.542Z" fill="#354427"/>
<path d="M807.179 389.374C799.688 381.953 783.713 380.788 774.524 386.996C779.422 378.252 774.976 367.054 764.558 361.863C756.533 357.869 745.712 357.831 737.28 361.186C738.376 357.958 738.949 354.624 738.813 351.29C738.64 347.108 737.02 342.451 732.257 340.39C730.257 339.526 727.913 339.229 725.615 339.189C722.488 339.134 719.394 339.612 716.467 340.448C710.231 342.229 704.836 345.8 702.04 350.434C700.115 349.295 697.719 349.212 695.334 349.682C693.235 350.097 691.148 350.935 689.422 351.912C680.813 356.785 675.459 364.538 674.095 372.641L674.208 372.956C675.504 375.872 677.919 378.408 680.406 380.837C678.405 381.924 676.669 383.276 675.143 384.76C673.266 386.595 671.808 388.656 670.87 390.863C669.841 393.278 669.378 395.82 669.77 398.362C669.208 398.16 668.636 397.996 668.063 397.843L668.835 400.232C668.835 400.232 689.324 406.42 682.855 420.855C676.382 435.29 661.793 437.478 661.793 437.478C663.983 441.867 670.192 444.873 676.314 444.507C673.447 446.028 670.666 447.777 668.945 450.1C667.223 452.423 666.74 455.432 668.481 457.746C668.994 458.42 669.676 459.022 670.105 459.729C670.663 460.645 670.764 461.674 671.043 462.659C672.592 468.19 680.014 472.031 687.403 472.216C688.043 472.233 688.672 472.196 689.305 472.167C691.344 472.074 693.348 471.781 695.285 471.279C695.684 474.42 695.959 477.564 696.125 480.717C700.39 483.864 706.215 485.812 711.968 484.994C712.891 484.861 713.871 484.665 714.749 484.925C715.875 485.253 716.426 486.196 717.059 486.982C718.652 488.965 721.305 490.106 724.24 490.559C726.568 490.919 729.066 490.85 731.406 490.314C732.823 489.988 734.145 489.478 735.343 488.844L736.055 488.498C741.696 485.077 743.885 479.23 743.994 473.726C747.031 475.236 750.919 475.086 754.498 474.492L755.406 474.357C757.69 473.922 759.89 473.299 762.045 472.593C769.954 470.008 776.882 465.708 781.845 460.331C785.194 462.276 789.097 463.596 793.238 464.239C794.252 464.397 795.284 464.498 796.32 464.579C800.152 464.878 804.063 464.671 807.778 463.927C809.575 463.567 811.308 463.066 813 462.498V386.353C810.72 386.927 808.656 387.921 807.179 389.374Z" fill="#354427"/>
<path d="M810.046 10.2956C811.172 9.238 812.137 8.0853 813 6.88933V-15.6959C812.668 -16.108 812.412 -16.5489 812.035 -16.9408C807.514 -21.6671 799.737 -24.3184 792.172 -24.3127C789.892 -28.2925 785.066 -31.4424 779.452 -32.2378C783.924 -33.2897 788.547 -33.9612 792.925 -35.2205C797.303 -36.4799 801.534 -38.4193 804.104 -41.4078C806.681 -44.3934 807.231 -48.578 804.537 -51.5031C801.84 -54.4253 795.581 -55.2523 792.353 -52.6644C792.997 -56.7826 789.188 -61.0363 783.939 -62.0681C788.51 -64.0306 792.175 -67.2035 794.157 -70.9153C795.97 -74.3073 795.939 -78.8808 791.953 -80.9125C788.675 -82.5782 784.037 -81.7021 781.091 -79.705C778.145 -77.7079 776.494 -74.852 774.931 -72.0883C774.347 -76.9126 768.725 -81.0883 762.399 -81.3909C766.947 -86.7224 770.229 -92.682 772.041 -98.8953C773.175 -102.794 773.721 -106.927 772.165 -110.737C770.609 -114.553 766.57 -117.97 761.408 -118.581C753.3 -119.538 746.605 -113.619 743.545 -107.797C740.949 -102.858 739.699 -97.1375 742.547 -92.2815C738.331 -94.4631 732.054 -93.855 728.678 -90.9443C728.836 -94.3823 728.863 -97.8896 727.529 -101.178C726.195 -104.463 723.294 -107.541 719.1 -108.789C714.907 -110.037 709.444 -108.947 707.375 -105.895C715.898 -121.212 718.874 -149.406 689.727 -151.847C678.564 -152.783 667.249 -149.345 658.73 -143.752C646.35 -135.622 639.146 -123.466 636.373 -111.365C620.503 -111.293 605.172 -103.38 599.147 -92.1518C594.189 -82.9096 595.873 -71.9153 602.855 -63.5204C597.972 -47.2782 602.214 -29.3473 615.296 -15.9495C615.296 -15.9495 631.448 7.03342 669.189 24.4629C672.818 27.7108 678.692 28.9731 684.298 28.4802C685.993 28.3333 687.67 28.0307 689.249 27.561L689.343 27.5379C693.073 26.4139 696.283 24.5494 699.026 22.3015C699.964 25.8318 702.044 29.1546 705.537 31.5263C704.339 37.4428 706.659 43.7168 711.701 48.296L711.923 48.5208C713.336 49.7657 714.96 50.8609 716.715 51.8148C721.44 54.3796 727.205 55.832 733 55.7859C722.846 64.7831 724.929 80.2357 737.268 87.4606C738.938 90.1724 741.198 92.6997 743.896 94.8871C745.083 95.8467 746.356 96.7344 747.713 97.5385C750.764 99.3454 754.201 100.734 757.961 101.455C762.034 102.236 766.408 102.08 770.443 101.17C769.354 107.296 771.883 113.516 779.976 116.778C787.123 119.657 796.889 117.864 801.55 112.818C805.091 114.196 809.126 114.34 813 113.642V9.84029C812.001 9.9008 811.007 10.0276 810.046 10.2956Z" fill="#49772C"/>
<path d="M800.747 251.54C802.22 250.845 803.614 249.963 805.306 249.695L805.374 249.678L806.32 249.612L806.444 249.603C806.798 249.6 807.156 249.62 807.514 249.652C807.872 249.687 808.23 249.733 808.584 249.785C808.942 249.834 809.296 249.891 809.65 249.946C810.754 250.116 811.873 250.246 813 250.358V154.158C806.828 158.271 803.275 164.816 804.843 171.006C801.708 167.078 794.263 166.888 788.487 168.196L787.914 168.357C789.504 165.865 790.439 163.233 790.028 160.458C789.523 157.029 787.014 153.853 787.006 150.403C787.002 148.51 787.76 146.671 788.17 144.804C789.889 137.049 784.682 128.348 775.179 125.343C765.677 122.337 752.984 126.53 750.64 134.19C741.564 134.717 732.909 138.556 727.8 144.32C722.691 150.083 721.233 157.654 723.957 164.3C720.702 162.559 716.847 161.527 712.895 161.222C710.299 161.023 707.669 161.147 705.13 161.617L704.482 161.723C697.918 163.101 692.255 166.801 689.456 171.542C689.456 171.542 687.892 195.617 670.305 202.729C672.513 206.266 675.828 209.404 679.946 211.738C680.964 212.314 682.071 212.856 683.326 212.995L683.529 212.986C684.11 218.464 687.825 223.793 693.932 226.738C694.821 227.165 695.774 227.488 696.731 227.805C702.21 229.626 708.6 229.675 714.24 228.116C717.948 227.09 721.331 225.407 723.855 223.073C724.405 228.776 725.28 234.776 729.658 239.413C730.366 240.162 731.225 240.828 732.144 241.45C728.806 243.894 726.478 246.868 727.789 250.081C728.84 252.661 732.156 254.436 735.629 254.94C739.1 255.447 742.694 254.868 746.032 253.978C752.724 252.191 758.827 249.127 763.631 245.139C763.311 247.231 764.724 249.237 766.826 250.655C767.493 251.102 768.22 251.493 768.993 251.808C770.892 252.577 772.983 252.966 775.119 253.223C776.585 253.396 778.065 253.517 779.531 253.615C782.609 253.819 785.789 253.986 788.901 253.906C791.004 253.851 793.08 253.678 795.073 253.312C796.068 253.13 797.043 252.894 797.993 252.603C798.942 252.312 799.862 251.96 800.747 251.54Z" fill="#49772C"/>
<path d="M200 135.772C221.443 127.747 243.306 122.139 266.955 124.711C272.463 125.312 277.949 123.209 282.897 120.86C297.094 114.114 312.006 111.722 327.84 114.136C330.973 114.615 334.252 115.232 336.028 111.751C339.343 110.337 342.656 108.921 345.968 107.506C352.723 104.389 358.308 107.147 362.965 111.074C368.727 115.935 372.941 114.71 377.963 110.124C383.172 105.37 387.465 99.5573 394.631 96.7825C401.959 90.8871 411.077 88.3754 420.178 86.0768C429.256 83.7847 437.633 84.8285 443.702 92.3702C444.953 98.8332 445.373 105.14 442.362 111.474C441.145 114.034 436.53 118.364 440.581 119.512C445.325 120.856 449.318 126.925 455.641 122.948C457.578 121.73 459.834 120.88 462.039 120.077C467.686 118.022 473.796 116.313 479.134 119.731C484.568 123.209 480.953 128.154 480.093 132.612C479.189 137.289 481.318 142.785 475.273 145.91C464.978 150.435 454.572 147.771 444.184 146.299C438.613 146.427 433.04 146.553 427.47 146.679C416.293 150.352 405.118 151.394 393.955 146.638C385.223 144.307 376.494 142.076 367.658 146.29C339.681 151.235 311.704 152.12 283.726 146.295L283.906 146.39C258.618 140.669 232.966 138.114 206.894 138.86C204.367 138.931 200.213 140.556 200 135.772Z" fill="#C8DCC9"/>
<path d="M0 408.976C30.3939 404.921 59.2394 397.033 87.3024 386.39C94.5258 383.649 102.371 383.112 109.421 386.541C116.366 389.919 123.287 388.217 128.53 385.384C134.808 381.99 140.173 379.591 147.416 381.695C152.836 383.27 152.183 379.214 152.109 376.541C151.048 337.939 194.354 319.395 226.222 336.872C230.745 339.352 233.062 339.205 234.622 333.98C236.91 326.303 243.413 322.285 251.745 323.027C259.336 323.706 260.753 320.286 262.74 314.923C268.49 299.42 280.425 289.69 298.526 288.187C317.162 286.64 330.723 294.799 340.006 309.24C341.905 312.195 342.118 315.46 348.06 315.429C365.14 315.344 373.801 325.102 372.373 340.807C371.211 353.613 361.959 362.445 352.621 373.452C358.922 373.159 363.402 372.812 367.884 372.766C383.73 372.6 394.108 381.219 393.741 394.117C393.323 408.65 382.347 419.611 367.36 417.688C349.733 415.424 332.192 420.021 314.763 416.662C310.891 415.913 307.869 418.089 304.568 419.234C285.327 425.899 266.307 426.127 247.638 417.556C244.347 416.047 241.221 414.631 237.414 415.845C219.77 421.476 201.753 419.51 183.991 417.116C168.082 414.971 152.666 415.915 136.954 418.422C126.288 420.124 115.569 416.921 104.875 415.854C76.6918 413.043 48.6696 408.431 20.1002 409.85C13.4361 410.181 6.70246 409.298 0 408.976Z" fill="#C8DCC9"/>
</svg>
